<svg version="1.1" xmlns="http://www.w3.org/2000/svg" xmlns:xlink="http://www.w3.org/1999/xlink" width="325" height="239.75" viewBox="0,0,325,239.75"><g transform="translate(-21.56232,-32.06901)"><g data-paper-data="{&quot;isPaintingLayer&quot;:true}" fill-rule="nonzero" stroke="none" stroke-width="0" stroke-linecap="butt" stroke-linejoin="miter" stroke-miterlimit="10" stroke-dasharray="" stroke-dashoffset="0" style="mix-blend-mode: normal"><path d="M312.56232,194.81901v-52h14v52z" fill="#ad7500"/><path d="M294.56232,127.81901c0,-14.3594 11.6406,-26 26,-26c14.3594,0 26,11.6406 26,26c0,14.3594 -11.6406,26 -26,26c-14.3594,0 -26,-11.6406 -26,-26z" fill="#00ff40"/><path d="M204.56232,271.81901v-52h14v52z" fill="#ad7500"/><path d="M186.56232,204.81901c0,-14.3594 11.6406,-26 26,-26c14.3594,0 26,11.6406 26,26c0,14.35941 -11.6406,26 -26,26c-14.3594,0 -26,-11.64059 -26,-26z" fill="#00ff40"/><g><path d="M53.06232,194.81901v-91h24.5v91z" fill="#ad7500"/><path d="M21.56232,77.56901c0,-25.12896 20.37104,-45.5 45.5,-45.5c25.12896,0 45.5,20.37104 45.5,45.5c0,25.12896 -20.37104,45.5 -45.5,45.5c-25.12896,0 -45.5,-20.37104 -45.5,-45.5z" fill="#00ff40"/></g></g></g></svg>