<svg version="1.1" xmlns="http://www.w3.org/2000/svg" xmlns:xlink="http://www.w3.org/1999/xlink" width="154.50489" height="48.29619" viewBox="0,0,154.50489,48.29619"><g transform="translate(-168.8707,-90.5511)"><g data-paper-data="{&quot;isPaintingLayer&quot;:true}" fill-rule="nonzero" stroke-linecap="butt" stroke-linejoin="miter" stroke-miterlimit="10" stroke-dasharray="" stroke-dashoffset="0" style="mix-blend-mode: normal"><path d="M320.42464,127.31778c0,2.01684 -1.27074,3.73692 -3.05524,4.40323l-4.59703,1.83882l-0.53046,-1.32614c-7.84808,4.01252 -15.35492,3.36746 -26.11969,4.45807l-4.69864,0.46986c0,0 -2.11815,0.21181 -3.64562,-1.07539c-6.41187,0.69701 -12.97042,-0.31564 -19.37538,-0.31086c0,0 -4.69864,0 -4.69864,-4.69864c0,-0.63883 0.08687,-1.19082 0.23696,-1.66775c-1.3387,-3.14433 1.64249,-5.3802 1.64249,-5.3802l2.41679,-1.75804c6.03286,-3.14324 6.57963,-8.56235 10.8434,-13.41119c5.52357,-6.28151 14.75248,-6.86576 22.66239,-6.90955c9.15246,0.82392 39.54858,9.33976 28.8782,24.74874c0.02665,0.20257 0.04041,0.40923 0.04041,0.61909zM272.66122,126.66847c-0.14216,0.10935 -0.2847,0.21798 -0.42769,0.32567c0.17603,0 0.35198,-0.00086 0.52779,-0.00274c-0.0371,-0.10596 -0.07052,-0.21369 -0.10006,-0.32297z" fill="#bababa" stroke="#000000" stroke-width="1.5"/><path d="M266.39029,125.90819c0,-2.595 2.10364,-4.69864 4.69864,-4.69864c2.595,0 4.69864,2.10364 4.69864,4.69864c0,2.595 -2.10364,4.69864 -4.69864,4.69864c-2.595,0 -4.69864,-2.10364 -4.69864,-4.69864z" fill="#bababa" stroke="none" stroke-width="0.5"/><path d="M242.30423,134.72803c-0.8535,2.13482 -2.92648,3.41775 -5.09734,3.36786l-5.6441,0.00099l-0.00028,-1.6282c-10.00519,0.92605 -17.67816,-2.93352 -29.53414,-6.3346l-5.17232,-1.49105c0,0 -2.33168,-0.67216 -3.40378,-2.68106c-7.0819,-1.97562 -13.59555,-5.82298 -20.37718,-8.5284c0,0 -4.97349,-1.98839 -2.98509,-6.96188c0.27034,-0.67619 0.59588,-1.22372 0.95659,-1.66503c-0.08638,-3.89477 4.01539,-4.99984 4.01539,-4.99984l3.30214,-0.83813c7.71593,-0.77409 10.58796,-6.2788 17.15309,-9.60691c8.50491,-4.31146 18.52091,-1.02435 26.91204,2.27665c9.33916,4.74529 37.90953,26.62243 20.09415,38.41721c-0.05752,0.2257 -0.13041,0.45027 -0.21922,0.6724zM192.02168,113.82801c-0.19675,0.05558 -0.3936,0.11024 -0.59053,0.16373c0.18633,0.07449 0.37294,0.14804 0.55982,0.22045c0.00557,-0.12786 0.01579,-0.25604 0.03076,-0.3842z" fill="#bababa" stroke="#000000" stroke-width="1.5"/><path d="M185.70569,110.3695c1.09816,-2.74679 4.21507,-4.08325 6.96187,-2.98509c2.74679,1.09816 4.08326,4.21508 2.9851,6.96187c-1.09816,2.74679 -4.21508,4.08326 -6.96188,2.98509c-2.74679,-1.09816 -4.08325,-4.21508 -2.98509,-6.96187z" fill="#bababa" stroke="none" stroke-width="0.5"/><path d="M283.94659,115.02563c1.6602,0.5534 1.1068,2.21359 1.1068,2.21359l-0.26927,0.52384c0,0.9685 0.08097,4.14859 -0.39665,4.70027c-1.34322,1.55149 -6.8966,1.46427 -8.33604,0.12796c-1.17145,-1.08752 -1.56743,-5.11704 -1.5898,-6.62361c0,0 0,-1.75 1.75,-1.75c1.75,0 1.75,1.75 1.75,1.75c-0.02984,1.38386 0.15132,4.06905 1.29507,4.00377c0.60222,-0.03437 1.21018,-0.06749 1.80959,0c0.22272,0.02508 0.50992,0.47116 0.61448,0.27292c0.39077,-0.74086 -0.39665,-1.6437 -0.39665,-2.4813l0.44888,-1.63063c0,0 0.5534,-1.6602 2.21359,-1.1068z" fill="#000000" stroke="none" stroke-width="0.5"/><path d="M304.21974,113.49951c1.75,0 1.75,1.75 1.75,1.75v0.35908c0,2.10387 0.49607,4.94125 -1.23072,6.62361c-4.80918,4.68546 -9.40667,-1.85713 -10.1452,-5.97684c0,0 -0.2877,-1.72619 1.43849,-2.01389c1.72619,-0.2877 2.01389,1.43849 2.01389,1.43849c0.15399,1.02851 1.97725,6.5492 4.21794,4.07736c0.65754,-0.72538 0.20559,-3.34123 0.20559,-4.14874v-0.35908c0,0 0,-1.75 1.75,-1.75z" fill="#000000" stroke="none" stroke-width="0.5"/><path d="M204.39592,103.44532c1.75,0 1.75,1.75 1.75,1.75l-0.03398,1.06136c-0.97876,4.1896 -6.29462,7.73765 -10.13502,3.76686c-2.50392,-2.58893 -1.17297,-6.7072 0.55559,-9.10993c0,0 1.05,-1.4 2.45,-0.35c1.4,1.05 0.35,2.45 0.35,2.45c-0.6549,0.81941 -2.06236,3.46917 -0.88072,4.53505c1.86346,1.6809 3.96571,-0.12617 4.22812,-1.97839l-0.03398,-0.37495c0,0 0,-1.75 1.75,-1.75z" fill="#000000" stroke="none" stroke-width="0.5"/><path d="M223.05213,110.30179c1.71602,0.3432 1.37281,2.05922 1.37281,2.05922l-0.44283,2.08323c-1.16378,1.961 -2.60322,4.34887 -4.86783,5.27548c-8.09049,3.31039 -7.56563,-7.646 -4.62785,-11.62455c0,0 1.05,-1.4 2.45,-0.35c1.4,1.05 0.35,2.45 0.35,2.45c-1.46723,1.91749 -2.59057,9.13321 1.40326,5.52768c0.41899,-0.37825 0.85143,-0.75007 1.20356,-1.19124c0.32882,-0.41197 0.54955,-0.89964 0.82433,-1.34947l0.27533,-1.50755c0,0 0.3432,-1.71602 2.05922,-1.37281z" fill="#000000" stroke="none" stroke-width="0.5"/></g></g></svg>