<svg version="1.1" xmlns="http://www.w3.org/2000/svg" xmlns:xlink="http://www.w3.org/1999/xlink" width="16.26977" height="38.0255" viewBox="0,0,16.26977,38.0255"><g transform="translate(-231.8651,-160.98726)"><g data-paper-data="{&quot;isPaintingLayer&quot;:true}" fill-rule="nonzero" stroke="none" stroke-width="0.5" stroke-linecap="butt" stroke-linejoin="miter" stroke-miterlimit="10" stroke-dasharray="" stroke-dashoffset="0" style="mix-blend-mode: normal"><g><path d="M241.0798,173.57796c0.64931,-0.25035 1.29536,-0.51003 1.96143,-0.70983c0.01691,-0.00507 1.70281,-0.22869 1.93335,-0.53003c0.64793,-0.84691 0.37203,-2.72449 0.23237,-3.67559c-0.19231,-1.30955 -0.26466,-3.1086 -1.15135,-4.1656c-0.48292,-0.57568 -1.22269,-0.57607 -1.89158,-0.65667c-1.6434,-0.19801 -3.97394,0.01121 -5.40354,0.9735c-0.4249,0.28601 -0.76519,1.25011 -0.94898,1.67788c0.36648,3.0406 1.43125,5.14897 4.20317,6.62682l-0.11627,-0.17084c0,0 0.81403,0 1.18139,0.63035zM238.69609,175.49189c-3.76174,-2.15105 -5.25221,-5.14401 -5.57125,-9.39237c0.53289,-1.38115 0.75727,-2.52167 2.03765,-3.48084c0.52435,-0.39281 1.21552,-0.48966 1.82837,-0.72131c2.6668,-1.00803 6.86282,-1.67372 9.0678,0.76663c0.49841,0.55161 0.83031,1.24938 1.08901,1.94635c0.90642,2.44203 1.71817,7.29108 -0.10741,9.4898c-0.99889,1.20307 -3.74998,1.75697 -5.5142,2.24652c-0.0002,0.03565 -0.00042,0.07129 -0.00066,0.10694c0.57865,0.06842 0.95235,0.56669 0.95235,0.56669c0.92691,1.31749 2.38221,1.75819 3.66541,2.71512l0.75683,1.06637c0,0 0.69846,1.1641 -0.46564,1.86256c-1.1641,0.69846 -1.86256,-0.46564 -1.86256,-0.46564l-0.05771,-0.29119c-1.0703,-0.80808 -2.11386,-1.32613 -3.05623,-2.09192c-0.07966,2.65795 -0.19949,5.31949 -0.20187,7.9846c0.86969,0.39552 1.81013,0.88762 2.31225,1.57984c0.92422,1.27411 1.11926,3.40614 1.56738,4.89844l0.28823,1.14688c0,0 0.32926,1.31703 -0.98777,1.64628c-1.31703,0.32926 -1.64628,-0.98777 -1.64628,-0.98777l-0.25479,-1.02521c-0.35372,-1.18015 -0.46384,-3.03597 -1.14774,-4.06145c-0.31299,-0.46931 -0.86081,-0.68357 -1.42376,-0.87405c-0.65498,0.81756 -1.36718,1.64682 -1.88393,2.52251c-0.88827,1.50528 -1.22899,3.48756 -1.85841,5.15818c-0.04561,0.35234 -0.26739,1.20891 -1.34575,1.20891c-1.35756,0 -1.35756,-1.35756 -1.35756,-1.35756l0.0971,-0.63994c0.75017,-1.87543 1.13276,-4.00863 2.12898,-5.75402c0.67367,-1.18027 1.70884,-2.29174 2.52538,-3.38046c0,0 0.09822,-0.13096 0.27192,-0.26782c0.0074,-2.43662 0.11341,-4.8726 0.19065,-7.30472c-0.35735,0.16943 -0.71849,0.33198 -1.07261,0.50334c-1.07277,0.51909 -2.09075,1.75034 -2.97595,2.52488l-0.37691,0.50517c0,0 -0.84806,1.06008 -1.90814,0.21202c-1.06008,-0.84806 -0.21202,-1.90814 -0.21202,-1.90814l0.70914,-0.85239c1.09138,-0.95496 2.23935,-2.23753 3.54033,-2.90535c0.78684,-0.4039 1.6693,-0.66191 2.35767,-1.21725c0,0 0.00416,-0.00324 0.01217,-0.00905c0.00483,-0.40922 0.00729,-0.8183 0.00675,-1.22721v-0.27151c0,0 0,-0.05907 0.01232,-0.15257z" fill="#000000"/><path d="M239.89401,172.97441l0.11712,0.17096c-2.77193,-1.47786 -3.85786,-3.62441 -4.22434,-6.66501c0.18379,-0.42777 0.52964,-1.39986 0.95454,-1.68587c1.4296,-0.96229 3.78764,-1.17808 5.43104,-0.98007c0.6689,0.08059 1.41761,0.0859 1.90053,0.66158c0.88668,1.057 0.96888,2.8769 1.16119,4.18645c0.13967,0.95109 0.40923,2.84618 -0.2387,3.69309c-0.23054,0.30134 -1.9236,0.53099 -1.9405,0.53607c-0.66607,0.1998 -1.32313,0.46303 -1.97244,0.71339c-0.36736,-0.63035 -1.18843,-0.63058 -1.18843,-0.63058z" data-paper-data="{&quot;noHover&quot;:false,&quot;origItem&quot;:[&quot;Path&quot;,{&quot;applyMatrix&quot;:true,&quot;selected&quot;:true,&quot;segments&quot;:[[[241.0798,173.57796],[-0.36736,-0.63035],[0.64931,-0.25035],7],[[243.04123,172.86814],[-0.66607,0.1998],[0.01691,-0.00507],7],[[244.97457,172.33811],[-0.23054,0.30134],[0.64793,-0.84691],7],[[245.20694,168.66252],[0.13967,0.95109],[-0.19231,-1.30955],7],[[244.05559,164.49692],[0.88668,1.057],[-0.48292,-0.57568],7],[[242.16401,163.84025],[0.6689,0.08059],[-1.6434,-0.19801],7],[[236.76047,164.81375],[1.4296,-0.96229],[-0.4249,0.28601],7],[[235.8115,166.49163],[0.18379,-0.42777],[0.36648,3.0406],7],[[240.01467,173.11845],[-2.77193,-1.47786],[0,0],7],[[239.89841,172.94761],[0,0],[0,0],7]],&quot;closed&quot;:true}]}" fill="#ffffff"/><path d="M237.4548,166.43133c0,-0.74976 0.6078,-1.35756 1.35756,-1.35756c0.74976,0 1.35756,0.6078 1.35756,1.35756c0,0.74976 -0.6078,1.35756 -1.35756,1.35756c-0.74976,0 -1.35756,-0.6078 -1.35756,-1.35756z" fill="#000000"/><path d="M241.25596,167.78889c0,-0.74976 0.6078,-1.35756 1.35756,-1.35756c0.74976,0 1.35756,0.6078 1.35756,1.35756c0,0.74976 -0.6078,1.35756 -1.35756,1.35756c-0.74976,0 -1.35756,-0.6078 -1.35756,-1.35756z" fill="#000000"/></g></g></g></svg>