<svg version="1.1" xmlns="http://www.w3.org/2000/svg" xmlns:xlink="http://www.w3.org/1999/xlink" width="44.16103" height="19.07122" viewBox="0,0,44.16103,19.07122"><defs><radialGradient cx="260.53419" cy="186.08939" r="10.25091" gradientUnits="userSpaceOnUse" id="color-1"><stop offset="0" stop-color="#09ea00"/><stop offset="1" stop-color="#ff0000"/></radialGradient></defs><g transform="translate(-217.87315,-170.46439)"><g data-paper-data="{&quot;isPaintingLayer&quot;:true}" fill-rule="nonzero" stroke-width="0.5" stroke-linecap="butt" stroke-linejoin="miter" stroke-miterlimit="10" stroke-dasharray="" stroke-dashoffset="0" style="mix-blend-mode: normal"><path d="M231.81395,172.45403c0,0 4.57561,2.19966 4.29119,4.47499c-0.28441,2.27535 -0.54387,3.85431 0.1432,6.07073c0,0 0.19538,0.65126 -0.0971,1.22782c0.06128,0.05339 0.11638,0.10922 0.16493,0.16754c0.80113,0.96241 1.6047,2.37788 1.19553,3.56135c-0.32253,0.93289 -1.82676,0.76342 -2.77969,1.02072c-3.558,0.96077 -7.9165,-0.67384 -11.66347,-0.19769c0,0 -1.56928,0.19615 -1.76543,-1.37313c-0.06229,-0.49834 0.05467,-2.19419 0.7556,-3.33145c0.70093,-1.13726 1.80211,-0.81842 1.80211,-0.81842c0.12138,0 0.25838,-0.00195 0.4093,-0.00538c-0.64879,-1.7062 -1.16888,-2.75441 -2.97312,-3.76135c-1.80424,-1.00693 -3.08118,-3.14789 -3.08118,-3.14789c0,0 1.95368,-1.16725 4.65046,0.40165c2.69678,1.5689 3.57687,3.29748 4.64987,6.15534c0,0 0.03438,0.09168 0.06321,0.23798c0.3568,-0.00977 0.7237,-0.01784 1.09589,-0.02293c0.21543,-2.50052 -1.31238,-3.86924 -1.94996,-6.45027c-0.63758,-2.58104 -1.24346,-4.24035 -1.24346,-4.24035c0,0 4.07333,2.47044 4.10584,2.82212c0.03253,0.35168 2.45942,4.90861 2.25281,7.92477c0.41595,0.02492 0.82087,0.05845 1.20747,0.10248c-0.57712,-2.36018 -0.39286,-4.24411 -0.08138,-6.73597c0.31149,-2.49187 -1.15264,-4.08269 -1.15264,-4.08269z" fill="#00e63a" stroke="#000000"/><path d="M225.03433,184.74894c0,-0.43671 0.35403,-0.79074 0.79074,-0.79074c0.43671,0 0.79074,0.35403 0.79074,0.79074c0,0.43671 -0.35403,0.79074 -0.79074,0.79074c-0.43671,0 -0.79074,-0.35403 -0.79074,-0.79074z" fill="#000000" stroke="none"/><path d="M233.02085,185.14432c0,-0.43671 0.35403,-0.79074 0.79074,-0.79074c0.43671,0 0.79074,0.35403 0.79074,0.79074c0,0.43671 -0.35403,0.79074 -0.79074,0.79074c-0.43671,0 -0.79074,-0.35403 -0.79074,-0.79074z" fill="#000000" stroke="none"/><path d="M232.28556,187.62926c-0.19179,0.76713 -0.95892,0.57535 -0.95892,0.57535l-0.36921,-0.13778c-1.41317,0.1231 -2.69362,-0.23398 -4.10439,-0.23398c0,0 -0.79074,0 -0.79074,-0.79074c0,-0.79074 0.79074,-0.79074 0.79074,-0.79074c1.35956,0 2.61739,0.36871 3.9612,0.24047l0.89598,0.17852c0,0 0.76713,0.19179 0.57535,0.95892z" fill="#000000" stroke="none"/><path d="M250.78419,188.08939c-0.2245,0 -0.43912,-0.04227 -0.63634,-0.11929c-0.26351,0.39414 -0.56358,0.73457 -0.99539,0.88143c-0.98663,0.33558 -2.08661,-0.20119 -3.0876,-0.49115c-3.99764,-1.15805 -5.68539,-5.98186 -4.31096,-9.71393c1.2747,-3.46126 4.64173,-5.35838 8.18162,-4.05633c0.84324,0.31016 1.47228,1.81395 2.28468,1.43022c0.45141,-0.21322 0.50007,-0.95866 0.96207,-1.14784c3.93391,-1.61086 6.73885,0.91216 8.17753,4.17914c0.07207,0.95856 0.22607,1.96137 0.1521,2.9386c0.27228,0.46792 0.27228,0.97415 0.27228,0.97415l-0.06733,0.73076c-1.40792,4.63432 -4.28515,5.01688 -8.68267,5.01924c0,0 -1.02911,0 -1.50898,-0.78917c-0.22502,0.10533 -0.47615,0.16417 -0.74102,0.16417z" fill="url(#color-1)" stroke="#000000"/><path d="M255.15919,171.46439c0,0.75 -0.75,0.75 -0.75,0.75l-0.09467,-0.21967c-1.0294,1.0266 -1.80342,2.21776 -1.78033,3.71967c0,0 0,0.75 -0.75,0.75c-0.75,0 -0.75,-0.75 -0.75,-0.75c0.02136,-1.91934 0.8891,-3.44645 2.21967,-4.78033l1.15533,-0.21967c0,0 0.75,0 0.75,0.75z" fill="#06a900" stroke="#000000"/><path d="M246.28419,179.33939c0,-0.27614 0.22386,-0.5 0.5,-0.5c0.27614,0 0.5,0.22386 0.5,0.5c0,0.27614 -0.22386,0.5 -0.5,0.5c-0.27614,0 -0.5,-0.22386 -0.5,-0.5z" fill="#000000" stroke="none"/><path d="M254.28419,178.83939c0,-0.27614 0.22386,-0.5 0.5,-0.5c0.27614,0 0.5,0.22386 0.5,0.5c0,0.27614 -0.22386,0.5 -0.5,0.5c-0.27614,0 -0.5,-0.22386 -0.5,-0.5z" fill="#000000" stroke="none"/><path d="M249.75111,182.68806c-0.39703,0.35962 -0.63631,0.58396 -0.02558,1.06439c0.14129,0.11115 0.93582,-1.1967 0.31239,-1.05299l-0.12873,0.01493c0,0 -0.07025,0 -0.15808,-0.02633zM249.99406,181.7178l0.2864,0.01152c4.08492,1.59819 -3.68312,4.77767 -1.80637,0.86372c0.02993,-0.06242 0.73781,-0.76346 0.83155,-0.8572c0,0 0.34121,-0.34121 0.68842,-0.01803z" fill="#000000" stroke="none"/></g></g></svg>