<svg version="1.1" xmlns="http://www.w3.org/2000/svg" xmlns:xlink="http://www.w3.org/1999/xlink" width="15.11631" height="33.14282" viewBox="0,0,15.11631,33.14282"><g transform="translate(-232.42962,-163.42858)"><g data-paper-data="{&quot;isPaintingLayer&quot;:true}" fill-rule="nonzero" stroke-width="0.5" stroke-linecap="butt" stroke-linejoin="miter" stroke-miterlimit="10" stroke-dasharray="" stroke-dashoffset="0" style="mix-blend-mode: normal"><path d="M240.85256,173.63112c0.67561,-2.0911 0.5356,-4.77562 0.5356,-7.03576c0,0 0,-1.25 1.25,-1.25c1.25,0 1.25,1.25 1.25,1.25c0,2.66536 0.44816,4.98344 -0.625,7.875c-1.07925,2.90796 -1.44388,2.88262 -1.79592,3.208c-0.79912,0.7386 -1.42435,1.59412 -2.66232,2.00705c-1.23797,0.41293 -1.96378,0.03818 -2.18445,-0.39039c-0.22593,-0.4388 1.00392,-0.66181 1.89417,-1.71882c1.00232,-1.19007 1.66231,-1.85398 2.33792,-3.94508z" fill="#c40000" stroke="#000000"/><path d="M243.96529,163.92861c0,0.25 -0.25,0.25 -0.25,0.25l-0.00789,-0.05c-0.35644,0.26258 -0.47241,0.53246 -0.55929,0.91842c0.07026,0 0.14613,0 0.14613,0c0.08417,0 0.15862,0.04159 0.20393,0.10535c0.00219,-0.00006 0.00439,-0.00009 0.0066,-0.00009c0.13807,0 0.25,0.11193 0.25,0.25c0,0.02947 -0.0051,0.05774 -0.01446,0.08399c0.32407,0.1536 0.53756,0.44437 0.48959,0.91305c-0.00059,0.01626 -0.00261,0.03357 -0.0063,0.05198c-0.00937,0.04684 0.07809,0.33852 -0.00299,0.44093c-0.0663,0.08375 -0.19266,0.04094 -0.62946,-0.36582c-0.9745,-0.90748 -0.31187,0.64503 -1.22654,0.18813c-0.00409,-0.00204 -0.51265,-0.37554 -0.57509,-0.21943c0,0 -0.56653,0.17949 -0.79865,0.08664c-0.23212,-0.09285 0.70676,-1.42503 1.19998,-1.43263c0.07102,-0.10212 0.20866,-0.10212 0.20866,-0.10212h0.10526c0.04763,0 0.09211,-0.00283 0.13344,-0.0066c0.11701,-0.55904 0.29202,-0.94887 0.76919,-1.31182l0.30789,-0.05c0,0 0.25,0 0.25,0.25z" fill="#00d30c" stroke="#000000"/><path d="M241.58372,168.0865c0,-0.27614 0.22386,-0.5 0.5,-0.5c0.27614,0 0.5,0.22386 0.5,0.5c0,0.27614 -0.22386,0.5 -0.5,0.5c-0.27614,0 -0.5,-0.22386 -0.5,-0.5z" fill="#000000" stroke="none"/><path d="M242.53108,169.34966c0,-0.27614 0.22386,-0.5 0.5,-0.5c0.27614,0 0.5,0.22386 0.5,0.5c0,0.27614 -0.22386,0.5 -0.5,0.5c-0.27614,0 -0.5,-0.22386 -0.5,-0.5z" fill="#000000" stroke="none"/><path d="M241.02585,174.23018c-0.14367,-0.47891 0.33524,-0.62259 0.33524,-0.62259l0.38381,-0.08898c0.36235,-0.56223 0.51056,-1.09535 0.702,-1.73367c0,0 0.14367,-0.47891 0.62259,-0.33524c0.47891,0.14367 0.33524,0.62259 0.33524,0.62259c-0.26902,0.89648 -0.49283,1.5262 -1.08747,2.26633l-0.66882,0.22681c0,0 -0.47891,0.14367 -0.62259,-0.33524z" fill="#000000" stroke="none"/><path d="M244.16129,195.05277c-0.17897,0.55486 -0.87586,0.96864 -1.70825,0.96864c-0.56728,0 -1.07161,-0.19217 -1.39198,-0.49021c-0.31944,0.24032 -0.77134,0.39021 -1.27233,0.39021c-0.46583,0 -0.88922,-0.12959 -1.20315,-0.34097c-0.27334,0.43665 -0.88753,0.74097 -1.60139,0.74097c-0.96806,0 -2.87465,-2.02444 -3.85624,-4.95c-1.08517,-3.23426 -0.46622,-5.0507 4.84444,-6.48585c0,0 1.12677,-0.26785 1.83445,0.29887c0.05133,-0.01308 0.08159,-0.01897 0.08159,-0.01897l2.27023,-0.32951c3.77769,0.50097 5.22102,2.25706 5.13354,4.21496c0.28873,0.10959 -1.70275,5.74983 -3.13091,6.00186z" fill="#7ac400" stroke="#000000"/><path d="M241.11675,183.78958c0,0.25 -0.25,0.25 -0.25,0.25l-0.00789,-0.05c-0.35644,0.26258 -0.47241,0.53246 -0.55929,0.91842c0.07026,0 0.14613,0 0.14613,0c0.08417,0 0.15862,0.04159 0.20393,0.10535c0.00219,-0.00006 0.00439,-0.00009 0.0066,-0.00009c0.13807,0 0.25,0.11193 0.25,0.25c0,0.02947 -0.0051,0.05774 -0.01446,0.08399c0.32407,0.1536 -2.04268,-0.32955 -1.54946,-0.33715c0.07102,-0.10212 0.20866,-0.10212 0.20866,-0.10212h0.10526c0.04763,0 0.09211,-0.00283 0.13344,-0.0066c0.11701,-0.55904 0.29202,-0.94887 0.76919,-1.31182l0.30789,-0.05c0,0 0.25,0 0.25,0.25z" fill="#00d30c" stroke="#000000"/><path d="M235.03518,188.24747c0,-0.27614 0.22386,-0.5 0.5,-0.5c0.27614,0 0.5,0.22386 0.5,0.5c0,0.27614 -0.22386,0.5 -0.5,0.5c-0.27614,0 -0.5,-0.22386 -0.5,-0.5z" fill="#000000" stroke="none"/><path d="M244.58254,187.81063c0,-0.27614 0.22386,-0.5 0.5,-0.5c0.27614,0 0.5,0.22386 0.5,0.5c0,0.27614 -0.22386,0.5 -0.5,0.5c-0.27614,0 -0.5,-0.22386 -0.5,-0.5z" fill="#000000" stroke="none"/><path d="M238.36327,193.00418c0.20793,-0.45471 0.66265,-0.24678 0.66265,-0.24678l0.34716,0.18631c0.64321,-0.18353 1.10627,-0.48644 1.67122,-0.8399c0,0 0.42389,-0.26516 0.68906,0.15873c0.26516,0.42389 -0.15873,0.68906 -0.15873,0.68906c-0.79355,0.49631 -1.37716,0.82195 -2.3123,0.98596l-0.65228,-0.27072c0,0 -0.45471,-0.20793 -0.24678,-0.66265z" fill="#000000" stroke="none"/></g></g></svg>