<svg version="1.1" xmlns="http://www.w3.org/2000/svg" xmlns:xlink="http://www.w3.org/1999/xlink" width="30.693" height="13.43566" viewBox="0,0,30.693,13.43566"><g transform="translate(-224.6535,-173.23015)"><g data-paper-data="{&quot;isPaintingLayer&quot;:true}" fill-rule="nonzero" stroke-width="0.5" stroke-linecap="butt" stroke-linejoin="miter" stroke-miterlimit="10" stroke-dasharray="" stroke-dashoffset="0" style="mix-blend-mode: normal"><path d="M254.1582,178.0363c0,0 -3.68024,4.33704 -4.47765,5.14753c0.7956,-0.03646 3.7807,-0.86935 3.7807,-0.86935l1.54531,0.85851l-0.85851,1.5453l-5.76684,1.67478c0,0 -2.02182,0.22531 -2.97346,-0.72764c-0.95164,-0.95296 -1.0393,-3.29066 -1.0393,-3.29066l0.77414,-5.75269l1.67938,-0.79549l1.06066,1.41422c0,0 -1.40255,2.42446 -0.92203,3.82164c1.10516,-1.42923 5.42985,-4.79391 5.42985,-4.79391h1.76776z" data-paper-data="{&quot;index&quot;:null}" fill="#ac51d4" stroke="#000000"/><path d="M253.00915,183.95832c-0.19526,-0.19526 -0.19526,-0.51185 0,-0.70711c0.19526,-0.19526 0.51185,-0.19526 0.70711,0c0.19526,0.19526 0.19526,0.51185 0,0.70711c-0.19526,0.19526 -0.51185,0.19526 -0.70711,0z" data-paper-data="{&quot;index&quot;:null}" fill="#000000" stroke="none"/><path d="M246.02647,177.68275c-0.19526,-0.19526 -0.19526,-0.51185 0,-0.70711c0.19526,-0.19526 0.51185,-0.19526 0.70711,0c0.19526,0.19526 0.19526,0.51185 0,0.70711c-0.19526,0.19526 -0.51185,0.19526 -0.70711,0z" data-paper-data="{&quot;index&quot;:null}" fill="#000000" stroke="none"/><path d="M246.5768,183.26578c-0.25795,0.35666 0.45612,0.53491 1.02075,0.53687c-0.20949,-0.59647 -0.52106,-1.22777 -1.02075,-0.53687zM248.60398,183.66052c0.08389,0.03387 0.16725,0.09984 0.23773,0.21732c0.25725,0.42874 -0.1715,0.68599 -0.1715,0.68599c-1.13435,0.63818 -3.60512,0.13745 -3.01728,-1.68075c0.67738,-2.09517 2.51402,-0.40656 2.95104,0.77743z" data-paper-data="{&quot;index&quot;:null}" fill="#000000" stroke="none"/><path d="M225.8418,175.89353l1.76777,0c0,0 4.32469,3.36469 5.42984,4.79392c0.48051,-1.39718 -0.92204,-3.82164 -0.92204,-3.82164l1.06066,-1.41421l1.67938,0.7955l0.77414,5.75268c0,0 -0.08767,2.33771 -1.03931,3.29066c-0.95164,0.95295 -2.97345,0.72764 -2.97345,0.72764l-5.76684,-1.67478l-0.85851,-1.5453l1.5453,-0.85851c0,0 2.9851,0.83288 3.7807,0.86935c-0.79742,-0.81049 -4.47765,-5.14753 -4.47765,-5.14753z" fill="#ac51d4" stroke="#000000"/><path d="M226.28374,183.58332c-0.19526,-0.19526 -0.19526,-0.51185 0,-0.70711c0.19526,-0.19526 0.51185,-0.19526 0.70711,0c0.19526,0.19526 0.19526,0.51185 0,0.70711c-0.19526,0.19526 -0.51185,0.19526 -0.70711,0z" fill="#000000" stroke="none"/><path d="M233.26642,177.30775c-0.19526,-0.19526 -0.19526,-0.51185 0,-0.70711c0.19526,-0.19526 0.51185,-0.19526 0.70711,0c0.19526,0.19526 0.19526,0.51185 0,0.70711c-0.19526,0.19526 -0.51185,0.19526 -0.70711,0z" fill="#000000" stroke="none"/><path d="M232.40245,183.42764c0.56463,-0.00196 1.2787,-0.18021 1.02075,-0.53686c-0.49968,-0.6909 -0.81126,-0.05961 -1.02075,0.53686zM231.39603,183.28551c0.43703,-1.18399 2.27366,-2.87259 2.95105,-0.77743c0.58785,1.8182 -1.88293,2.31894 -3.01728,1.68075c0,0 -0.42875,-0.25725 -0.1715,-0.68599c0.07048,-0.11748 0.15385,-0.18344 0.23773,-0.21732z" fill="#000000" stroke="none"/><path d="M239.98061,173.5837l1.25,1.25c0,0 0.67882,5.43721 0.44967,7.22929c1.32773,-0.64818 2.05033,-3.35429 2.05033,-3.35429l1.75,-0.25l0.625,1.75l-3.52036,4.61516c0,0 -1.715,1.59102 -3.06175,1.59195c-1.34675,0.00093 -2.61707,-1.58803 -2.61707,-1.58803l-2.89352,-5.26202l0.48564,-1.69975l1.69975,0.48564c0,0 1.52185,2.69972 2.05864,3.28808c0.00924,-1.13696 0.47367,-6.80603 0.47367,-6.80603z" fill="#ac51d4" stroke="#000000"/><path d="M234.85561,179.3337c0,-0.27614 0.22386,-0.5 0.5,-0.5c0.27614,0 0.5,0.22386 0.5,0.5c0,0.27614 -0.22386,0.5 -0.5,0.5c-0.27614,0 -0.5,-0.22386 -0.5,-0.5z" fill="#000000" stroke="none"/><path d="M244.23061,179.8337c0,-0.27614 0.22386,-0.5 0.5,-0.5c0.27614,0 0.5,0.22386 0.5,0.5c0,0.27614 -0.22386,0.5 -0.5,0.5c-0.27614,0 -0.5,-0.22386 -0.5,-0.5z" fill="#000000" stroke="none"/><path d="M239.29227,183.5502c0.40064,0.39787 1.0316,0.77675 1.1014,0.34216c0.13521,-0.84187 -0.5315,-0.6158 -1.1014,-0.34216zM238.68112,182.73805c1.14623,-0.52818 3.63895,-0.42351 2.63643,1.53698c-0.86999,1.70133 -2.97117,0.3083 -3.32201,-0.94507c0,0 -0.12127,-0.48507 0.3638,-0.60634c0.13291,-0.03323 0.2385,-0.02093 0.32177,0.01443z" fill="#000000" stroke="none"/></g></g></svg>