<svg version="1.1" xmlns="http://www.w3.org/2000/svg" xmlns:xlink="http://www.w3.org/1999/xlink" width="32.48947" height="16.99257" viewBox="0,0,32.48947,16.99257"><g transform="translate(-222.58637,-172.98616)"><g data-paper-data="{&quot;isPaintingLayer&quot;:true}" fill-rule="nonzero" stroke-width="0.5" stroke-linecap="butt" stroke-linejoin="miter" stroke-miterlimit="10" stroke-dasharray="" stroke-dashoffset="0" style="mix-blend-mode: normal"><path d="M248.7403,179.98493c0,0.53655 -0.33806,0.99415 -0.8128,1.17141l-1.22297,0.48919l-0.14112,-0.3528c-2.08786,1.06747 -4.08494,0.89586 -6.94874,1.186l-1.25,0.125c0,0 -0.5635,0.05635 -0.96986,-0.28609c-1.70578,0.18543 -3.45058,-0.08397 -5.15452,-0.0827c0,0 -1.25,0 -1.25,-1.25c0,-0.16995 0.02311,-0.3168 0.06304,-0.44368c-0.35614,-0.8365 0.43696,-1.43132 0.43696,-1.43132l0.64295,-0.4677c1.60495,-0.83621 1.75041,-2.27788 2.88472,-3.56784c1.46946,-1.6711 3.92467,-1.82653 6.02898,-1.83818c2.43487,0.21919 10.52129,2.4847 7.6826,6.58402c0.00709,0.05389 0.01075,0.10887 0.01075,0.1647zM236.03358,179.81219c-0.03782,0.02909 -0.07574,0.05799 -0.11378,0.08664c0.04683,0 0.09364,-0.00023 0.14041,-0.00073c-0.00987,-0.02819 -0.01876,-0.05685 -0.02662,-0.08592z" fill="#bababa" stroke="#000000"/><path d="M234.3653,179.60993c0,-0.69036 0.55964,-1.25 1.25,-1.25c0.69036,0 1.25,0.55964 1.25,1.25c0,0.69036 -0.55964,1.25 -1.25,1.25c-0.69036,0 -1.25,-0.55964 -1.25,-1.25z" fill="#bababa" stroke="none"/><path d="M236.8653,178.48493c0,-0.27614 0.22386,-0.5 0.5,-0.5c0.27614,0 0.5,0.22386 0.5,0.5c0,0.27614 -0.22386,0.5 -0.5,0.5c-0.27614,0 -0.5,-0.22386 -0.5,-0.5z" fill="#000000" stroke="none"/><path d="M242.4903,177.98493c0,-0.27614 0.22386,-0.5 0.5,-0.5c0.27614,0 0.5,0.22386 0.5,0.5c0,0.27614 -0.22386,0.5 -0.5,0.5c-0.27614,0 -0.5,-0.22386 -0.5,-0.5z" fill="#000000" stroke="none"/><path d="M247.1775,186.65636l-1.22297,0.48919l-0.14112,-0.3528c-2.08786,1.06747 -4.08494,0.89586 -6.94874,1.186l-1.25,0.125c0,0 -0.5635,0.05635 -0.96986,-0.28609c-1.70578,0.18543 -3.45058,-0.08397 -5.15452,-0.0827c0,0 -1.25,0 -1.25,-1.25c0,-0.16995 0.02311,-0.3168 0.06304,-0.44368c-0.35614,-0.8365 0.43696,-1.43132 0.43696,-1.43132l0.64295,-0.4677c1.60495,-0.83621 2.88472,-3.56784 2.88472,-3.56784l6.02898,-1.83818l7.63108,3.76041l0.06226,2.98832c0,0 -0.33805,0.99414 -0.81279,1.1714zM235.28358,185.31221c-0.03782,0.02909 -0.07574,0.05799 -0.11378,0.08664c0.04683,0 0.09364,-0.00023 0.14041,-0.00073c-0.00987,-0.02819 -0.01876,-0.05685 -0.02662,-0.08592z" fill="#bab900" stroke="#000000"/><path d="M233.6153,184.73495c0,-0.69036 0.55964,-1.25 1.25,-1.25c0.69036,0 1.25,0.55964 1.25,1.25c0,0.69036 -0.55964,1.25 -1.25,1.25c-0.69036,0 -1.25,-0.55964 -1.25,-1.25z" fill="#bab900" stroke="none"/><path d="M236.1153,183.98495c0,-0.27614 0.22386,-0.5 0.5,-0.5c0.27614,0 0.5,0.22386 0.5,0.5c0,0.27614 -0.22386,0.5 -0.5,0.5c-0.27614,0 -0.5,-0.22386 -0.5,-0.5z" fill="#000000" stroke="none"/><path d="M241.7403,183.48495c0,-0.27614 0.22386,-0.5 0.5,-0.5c0.27614,0 0.5,0.22386 0.5,0.5c0,0.27614 -0.22386,0.5 -0.5,0.5c-0.27614,0 -0.5,-0.22386 -0.5,-0.5z" fill="#000000" stroke="none"/><path d="M240.6153,186.60993c0,0.53655 -0.33806,0.99415 -0.8128,1.17141l-1.22297,0.48919l-0.14112,-0.3528c-2.08786,1.06747 -4.08494,0.89586 -6.94874,1.186l-1.25,0.125c0,0 -0.5635,0.05635 -0.96986,-0.28609c-1.70578,0.18543 -3.45058,-0.08397 -5.15452,-0.0827c0,0 -1.25,0 -1.25,-1.25c0,-0.16995 0.02311,-0.3168 0.06304,-0.44368c-0.35614,-0.8365 0.43696,-1.43132 0.43696,-1.43132l0.64295,-0.4677c1.60495,-0.83621 1.75041,-2.27788 2.88472,-3.56784c1.46946,-1.6711 3.92467,-1.82653 6.02898,-1.83818c2.43487,0.21919 10.52129,2.4847 7.6826,6.58402c0.00709,0.05389 0.01075,0.10887 0.01075,0.1647zM227.90858,186.43719c-0.03782,0.02909 -0.07574,0.05799 -0.11378,0.08664c0.04683,0 0.09364,-0.00023 0.14041,-0.00073c-0.00987,-0.02819 -0.01876,-0.05685 -0.02662,-0.08592z" fill="#bababa" stroke="#000000"/><path d="M226.2403,186.23493c0,-0.69036 0.55964,-1.25 1.25,-1.25c0.69036,0 1.25,0.55964 1.25,1.25c0,0.69036 -0.55964,1.25 -1.25,1.25c-0.69036,0 -1.25,-0.55964 -1.25,-1.25z" fill="#bababa" stroke="none"/><path d="M228.7403,185.10993c0,-0.27614 0.22386,-0.5 0.5,-0.5c0.27614,0 0.5,0.22386 0.5,0.5c0,0.27614 -0.22386,0.5 -0.5,0.5c-0.27614,0 -0.5,-0.22386 -0.5,-0.5z" fill="#000000" stroke="none"/><path d="M234.3653,184.60993c0,-0.27614 0.22386,-0.5 0.5,-0.5c0.27614,0 0.5,0.22386 0.5,0.5c0,0.27614 -0.22386,0.5 -0.5,0.5c-0.27614,0 -0.5,-0.22386 -0.5,-0.5z" fill="#000000" stroke="none"/><path d="M254.2403,187.23493c0,0.53655 -0.33806,0.99415 -0.8128,1.17141l-1.22297,0.48919l-0.14112,-0.3528c-2.08786,1.06747 -4.08494,0.89586 -6.94874,1.186l-1.25,0.125c0,0 -0.5635,0.05635 -0.96986,-0.28609c-1.70578,0.18543 -3.45058,-0.08397 -5.15452,-0.0827c0,0 -1.25,0 -1.25,-1.25c0,-0.16995 0.02311,-0.3168 0.06304,-0.44368c-0.35614,-0.8365 0.43696,-1.43132 0.43696,-1.43132l0.64295,-0.4677c1.60495,-0.83621 1.75041,-2.27788 2.88472,-3.56784c1.46946,-1.6711 3.92467,-1.82653 6.02898,-1.83818c2.43487,0.21919 10.52129,2.4847 7.6826,6.58402c0.00709,0.05389 0.01075,0.10887 0.01075,0.1647zM241.53358,187.06219c-0.03782,0.02909 -0.07574,0.05799 -0.11378,0.08664c0.04683,0 0.09364,-0.00023 0.14041,-0.00073c-0.00987,-0.02819 -0.01876,-0.05685 -0.02662,-0.08592z" fill="#bababa" stroke="#000000"/><path d="M239.8653,186.85993c0,-0.69036 0.55964,-1.25 1.25,-1.25c0.69036,0 1.25,0.55964 1.25,1.25c0,0.69036 -0.55964,1.25 -1.25,1.25c-0.69036,0 -1.25,-0.55964 -1.25,-1.25z" fill="#bababa" stroke="none"/><path d="M242.3653,185.73493c0,-0.27614 0.22386,-0.5 0.5,-0.5c0.27614,0 0.5,0.22386 0.5,0.5c0,0.27614 -0.22386,0.5 -0.5,0.5c-0.27614,0 -0.5,-0.22386 -0.5,-0.5z" fill="#000000" stroke="none"/><path d="M247.9903,185.23493c0,-0.27614 0.22386,-0.5 0.5,-0.5c0.27614,0 0.5,0.22386 0.5,0.5c0,0.27614 -0.22386,0.5 -0.5,0.5c-0.27614,0 -0.5,-0.22386 -0.5,-0.5z" fill="#000000" stroke="none"/></g></g></svg>