<svg version="1.1" xmlns="http://www.w3.org/2000/svg" xmlns:xlink="http://www.w3.org/1999/xlink" width="528.13719" height="424.70564" viewBox="0,0,528.13719,424.70564"><defs><radialGradient cx="241.68544" cy="286.55796" r="224.47447" gradientUnits="userSpaceOnUse" id="color-1"><stop offset="0" stop-color="#c6c6c6"/><stop offset="1" stop-color="#c0c0c0"/></radialGradient><linearGradient x1="410.69298" y1="59.67721" x2="487.30703" y2="-1.43161" gradientUnits="userSpaceOnUse" id="color-2"><stop offset="0" stop-color="#1acdff" stop-opacity="0"/><stop offset="1" stop-color="#1acdff"/></linearGradient></defs><g transform="translate(25.97351,32.29182)"><g data-paper-data="{&quot;isPaintingLayer&quot;:true}" fill-rule="nonzero" stroke="none" stroke-width="0" stroke-linecap="butt" stroke-linejoin="miter" stroke-miterlimit="10" stroke-dasharray="" stroke-dashoffset="0" style="mix-blend-mode: normal"><path d="M17.21096,272.2937l1.5015,-91.59159l220.72072,106.60661l225.22523,-108.10811l34,-18.43844l-10.3424,97.54927l-17.61432,-29.89287l-25.01603,76.53991l-23.34592,-34.66188l-53.19713,54.35674l-39.3198,-35.98855l-32.2948,55.31095l-64.10083,48.43809l-21.2128,-68.66914l-55.3361,-26.53505l-36.13588,32.89354l-32.81525,0.49892l-27.13439,-97.4804z" fill="url(#color-1)"/><path d="M-18.53754,153.43534l-1.5015,-160.31855h140.53754l0.23396,10.87955l-101.23396,179.12946l-2.03378,183l-43.43823,-7.20437z" fill="#aeaeae"/><path d="M461,180.3772l-223.3772,-114.3772l-24.83739,-98.29182l273.13194,26.16694l9.66269,168.79585z" fill="#fffbb8"/><path d="M17.8114,181l34,-95l4,-71l72.86557,-18.53329l95.75828,-20.3287l51.43373,54.39059l12.38907,59.39664l-48.44664,-21.92524z" fill="#c6c6c6"/><path d="M240,294.3772l-223.3772,-114.3772l223.3772,-114.3772l223.3772,114.3772z" fill="#00eb3b"/><path d="M485.8018,150.29126l-136.21764,-167.22809l119.52175,0.95411l33.05777,33.17736l-1.74783,97.9878z" fill="url(#color-2)"/></g></g></svg>