<svg version="1.1" xmlns="http://www.w3.org/2000/svg" xmlns:xlink="http://www.w3.org/1999/xlink" width="446.7544" height="421.28548" viewBox="0,0,446.7544,421.28548"><g transform="translate(-16.6228,39.38217)"><g data-paper-data="{&quot;isPaintingLayer&quot;:true}" fill-rule="nonzero" stroke="none" stroke-width="0" stroke-linecap="butt" stroke-linejoin="miter" stroke-miterlimit="10" stroke-dasharray="" stroke-dashoffset="0" style="mix-blend-mode: normal"><path d="M18.46472,181.33855v-220.72072h441.44144v220.72072l-219.21922,-115.61562z" fill="#8a8a8a"/><path d="M240,294.37721l-223.3772,-114.3772l223.3772,-114.3772l223.3772,114.3772z" fill="#acacac"/><path d="M20.21397,381.90331v-199.6997l219.21922,108.10811l220.72072,-109.60961v201.2012z" fill="#a7a7a7"/><path d="M293.59736,201.04856l17.71151,-26.65647l12.47867,14.6149l17.94414,-35.23585l9.98202,45.9202l20.95238,-37.29589c0,0 15.79404,13.5262 16.08999,31.9585c0.28133,17.52129 -2.73007,25.86325 -2.73007,25.86325l-78.38109,38.88363c0,0 -19.66919,-9.23328 -21.78975,-22.04859c-1.94461,-11.75198 7.74221,-36.00365 7.74221,-36.00365z" data-paper-data="{&quot;index&quot;:null}" fill="#d9d9d9"/></g></g></svg>