<svg version="1.1" xmlns="http://www.w3.org/2000/svg" xmlns:xlink="http://www.w3.org/1999/xlink" width="719.80589" height="433.09486" viewBox="0,0,719.80589,433.09486"><defs><linearGradient x1="142.52397" y1="35.12795" x2="487.56982" y2="35.12795" gradientUnits="userSpaceOnUse" id="color-1"><stop offset="0" stop-color="#fffbb8"/><stop offset="1" stop-color="#79e0dd"/></linearGradient><linearGradient x1="234.27183" y1="73.50809" x2="718.41066" y2="73.50809" gradientUnits="userSpaceOnUse" id="color-2"><stop offset="0" stop-color="#fffbb8"/><stop offset="1" stop-color="#00c8ff"/></linearGradient><radialGradient cx="240.99263" cy="304.81783" r="241.79968" gradientUnits="userSpaceOnUse" id="color-3"><stop offset="0" stop-color="#c6c6c6"/><stop offset="1" stop-color="#c0c0c0"/></radialGradient></defs><g transform="translate(1.39522,68.54714)"><g data-paper-data="{&quot;isPaintingLayer&quot;:true}" fill-rule="nonzero" stroke="none" stroke-width="0" stroke-linecap="butt" stroke-linejoin="miter" stroke-miterlimit="10" stroke-dasharray="" stroke-dashoffset="0" style="mix-blend-mode: normal"><path d="M250.84256,93.6715l-108.31859,-117.08709l345.04585,5.57972z" fill="url(#color-1)"/><path d="M239.83655,316.89972l-241.23177,-123.51938l241.23177,-123.51938l241.23177,123.51938z" fill="#fffbb8"/><path d="M476.34125,194.62534l-242.06942,-121.11724l242.06942,-121.11724l242.06942,121.11724z" fill="url(#color-2)"/><path d="M-0.76005,194.13856l3.24303,-262.6857h231.87688l4.86455,142.69347z" fill="#b9b9b9"/><path d="M-0.80706,289.97917l1.61739,-95.27984l237.75621,110.89949l242.60839,-112.46146v64.04055l-23.44009,21.73634l-38.6613,-33.05466l-3.24889,91.08014l-73.88608,-50.95127l-40.79336,78.55926l-96.07524,-29.19096l-42.36955,-39.90281l-38.58599,24.94898l-22.40837,-49.86597l-72.08413,79.29341z" fill="url(#color-3)"/></g></g></svg>