<svg version="1.1" xmlns="http://www.w3.org/2000/svg" xmlns:xlink="http://www.w3.org/1999/xlink" width="42.77854" height="32.14049" viewBox="0,0,42.77854,32.14049"><g transform="translate(-218.61073,-163.98298)"><g data-paper-data="{&quot;isPaintingLayer&quot;:true}" fill-rule="nonzero" stroke-width="0.5" stroke-linecap="butt" stroke-linejoin="miter" stroke-miterlimit="10" stroke-dasharray="" stroke-dashoffset="0" style="mix-blend-mode: normal"><path d="M260.55373,188.23495c0,0.53655 -0.33806,0.99415 -0.8128,1.17141l-1.22297,0.48919l-0.14112,-0.3528c-2.08786,1.06747 -4.08494,0.89586 -6.94874,1.186l-1.25,0.125c0,0 -0.5635,0.05635 -0.96986,-0.28609c-1.70578,0.18543 -3.45058,-0.08397 -5.15452,-0.0827c0,0 -1.25,0 -1.25,-1.25c0,-0.16995 0.02311,-0.3168 0.06304,-0.44368c-0.35614,-0.8365 0.43696,-1.43132 0.43696,-1.43132l0.64295,-0.4677c1.60495,-0.83621 1.75041,-2.27788 2.88472,-3.56784c1.46946,-1.6711 3.92467,-1.82653 6.02898,-1.83818c2.43487,0.21919 10.52129,2.4847 7.6826,6.58402c0.00709,0.05389 0.01075,0.10887 0.01075,0.1647zM247.84701,188.06221c-0.03782,0.02909 -0.07574,0.05799 -0.11378,0.08664c0.04683,0 0.09364,-0.00023 0.14041,-0.00073c-0.00987,-0.02819 -0.01876,-0.05685 -0.02662,-0.08592z" fill="#bababa" stroke="#000000"/><path d="M246.55373,187.60995c0,-0.69036 0.55964,-1.25 1.25,-1.25c0.69036,0 1.25,0.55964 1.25,1.25c0,0.69036 -0.55964,1.25 -1.25,1.25c-0.69036,0 -1.25,-0.55964 -1.25,-1.25z" fill="#bababa" stroke="none"/><path d="M248.67873,186.73495c0,-0.27614 0.22386,-0.5 0.5,-0.5c0.27614,0 0.5,0.22386 0.5,0.5c0,0.27614 -0.22386,0.5 -0.5,0.5c-0.27614,0 -0.5,-0.22386 -0.5,-0.5z" fill="#000000" stroke="none"/><path d="M254.30373,186.23495c0,-0.27614 0.22386,-0.5 0.5,-0.5c0.27614,0 0.5,0.22386 0.5,0.5c0,0.27614 -0.22386,0.5 -0.5,0.5c-0.27614,0 -0.5,-0.22386 -0.5,-0.5z" fill="#000000" stroke="none"/><path d="M220.65152,193.69644c-0.11957,-0.23722 2.52253,-3.85489 2.70559,-3.92005c1.10788,-0.98884 0.90757,-2.00832 1.12747,-3.54766c0.40094,-2.80657 0.15668,-6.11499 1.03484,-8.80621c1.38846,-4.25508 5.62707,-2.25439 7.15472,0.53881c0.48248,2.16257 0.16163,4.77187 0.83855,6.79116c0.26967,0.80444 0.53051,1.6491 1.05385,2.31689c0.57892,0.73871 2.08756,1.62311 2.35877,2.6572c0.22553,0.8599 2.11843,3.48461 1.58203,4.19353c-0.60168,0.7952 -4.69773,-1.74663 -5.5795,-1.69024c-0.88677,0.05671 -0.5318,2.56622 -1.3689,2.78284c-0.4363,0.1129 -2.05802,-2.05399 -2.50888,-1.97858c-1.42695,0.23868 -2.55315,2.53823 -3.97953,2.81658c0,0 -1.16114,-1.31217 -1.39591,-2.56431c-0.00876,-0.04673 -2.60688,1.23581 -3.02311,0.41001z" fill="#a85600" stroke="#000000"/><path d="M230.32192,177.5759c-0.93041,0.15867 -2.33299,-0.3863 -3.34041,-0.60107c-0.04207,0.05009 -0.09061,0.10005 -0.14634,0.14958c-0.81614,0.72546 -1.5416,-0.09068 -1.5416,-0.09068c-0.10172,-0.11994 -0.20972,-0.25314 -0.30984,-0.39456l-0.40229,-0.02295c-0.78021,-0.26028 -1.55388,-0.54063 -2.3216,-0.83572c0,0 -0.87086,-0.33494 -0.69295,-1.19061c-0.03349,-0.07044 -0.06394,-0.14367 -0.09146,-0.21939c-0.29308,0.11556 -0.58425,0.19363 -0.86639,0.09485c-2.34741,-0.82191 -1.92382,-2.46626 -1.07174,-3.92804c-0.26384,-0.19933 -0.43434,-0.51566 -0.43434,-0.87181c0,-0.24925 0.08351,-0.479 0.22408,-0.66279c-0.19956,-0.24741 -0.37638,-0.5018 -0.3928,-0.80537c-0.17222,-3.18342 3.32186,-3.5766 5.61426,-2.83149c0.2473,-0.35624 0.74862,-0.73622 1.59166,-1.13287c0.86869,-0.40872 3.15497,0.79325 3.97027,1.16256c0,0 0.33675,0.15307 0.52917,0.47703c0.13384,-0.16045 0.31285,-0.2819 0.51749,-0.34484l1.06808,-0.35603l0.01139,0.03417l0.088,-0.06215c1.4483,-0.17336 3.00445,-0.28593 4.0526,0.86489c1.83046,-0.0421 2.49668,2.11527 2.33489,3.88164c1.07153,0.99565 0.40808,3.52211 -0.46607,4.64325c0,0 -0.01041,0.01301 -0.03025,0.03452c0.30158,0.6616 0.32204,1.36252 -0.10876,2.00089c-0.44577,0.66056 -1.22209,0.79474 -2.0919,0.67153c0.02521,0.06143 0.05169,0.12183 0.07979,0.18093l-0.62173,-0.17569c0.01443,0.59082 0.23966,1.2796 -0.15814,1.67886c-1.40354,1.40873 -3.90084,0.19957 -4.24063,-1.54802c-0.23272,0.08602 -0.4827,0.15338 -0.75245,0.19938zM233.29913,177.24314c0.02389,0.01654 0.04942,0.0334 0.07553,0.05019c-0.02316,-0.02749 -0.04691,-0.05356 -0.07243,-0.07541z" fill="#00d721" stroke="#000000"/><path d="M233.9725,178.47419c-0.03669,0.01141 -0.07908,0.018 -0.12806,0.018c-0.12771,0 -0.21061,-0.04481 -0.26443,-0.10299c-0.14071,0.06607 -0.29781,0.10299 -0.46355,0.10299c-0.60307,0 -1.09196,-0.48889 -1.09196,-1.09196c0,-0.42578 0.2437,-0.79465 0.59922,-0.97473c0.14225,-0.43776 0.55353,-0.75421 1.03872,-0.75421c0.60307,0 1.09196,0.48889 1.09196,1.09196c0,0.28791 -0.11142,0.54979 -0.2935,0.74488c0.11912,0.2134 0.20043,0.49225 0.2025,0.80207c0,0 0,0.36399 -0.36399,0.36399c-0.19401,0 -0.28461,-0.10341 -0.32692,-0.2z" fill="#00d721" stroke="none"/><path d="M226.6557,180.9491c0,-0.20102 0.16296,-0.36399 0.36399,-0.36399c0.20102,0 0.36399,0.16296 0.36399,0.36399c0,0.20102 -0.16296,0.36399 -0.36399,0.36399c-0.20102,0 -0.36399,-0.16296 -0.36399,-0.36399z" fill="#000000" stroke="none"/><path d="M230.47756,181.0401c0,-0.20102 0.16296,-0.36399 0.36399,-0.36399c0.20102,0 0.36399,0.16296 0.36399,0.36399c0,0.20102 -0.16296,0.36399 -0.36399,0.36399c-0.20102,0 -0.36399,-0.16296 -0.36399,-0.36399z" fill="#000000" stroke="none"/><path d="M230.39523,184.15191c0.02147,-0.10627 0.09606,-0.29092 0.35532,-0.29092c0.36399,0 0.36399,0.36399 0.36399,0.36399l-0.10661,0.34837c-1.32364,1.32364 -4.35428,3.0112 -4.53422,-0.25738c0,0 0,-0.36399 0.36399,-0.36399c0.36399,0 0.36399,0.36399 0.36399,0.36399c-0.30725,2.4917 2.4073,0.55638 3.19356,-0.16406z" fill="#000000" stroke="none"/></g></g></svg>