<svg version="1.1" xmlns="http://www.w3.org/2000/svg" xmlns:xlink="http://www.w3.org/1999/xlink" width="28.85545" height="21.46385" viewBox="0,0,28.85545,21.46385"><g transform="translate(-225.54677,-169.31519)"><g data-paper-data="{&quot;isPaintingLayer&quot;:true}" fill-rule="nonzero" stroke-width="0.5" stroke-linecap="butt" stroke-linejoin="miter" stroke-miterlimit="10" stroke-dasharray="" stroke-dashoffset="0" style="mix-blend-mode: normal"><path d="M237.27721,188.89737c-0.75535,3.04571 -5.33824,0.89364 -6.0521,0.89364c-0.96806,0 -3.99965,-1.64944 -4.98124,-4.575c-1.08517,-3.23426 -0.45802,-5.02069 4.84444,-6.48585c5.01812,-1.38659 6.55291,8.69945 6.1889,10.16721z" fill="#3c3c3c" stroke="#000000"/><path d="M228.1511,182.09207c0,-0.27614 0.22386,-0.5 0.5,-0.5c0.27614,0 0.5,0.22386 0.5,0.5c0,0.27614 -0.22386,0.5 -0.5,0.5c-0.27614,0 -0.5,-0.22386 -0.5,-0.5z" fill="#ffffff" stroke="none"/><path d="M232.19846,181.28023c0,-0.27614 0.22386,-0.5 0.5,-0.5c0.27614,0 0.5,0.22386 0.5,0.5c0,0.27614 -0.22386,0.5 -0.5,0.5c-0.27614,0 -0.5,-0.22386 -0.5,-0.5z" fill="#ffffff" stroke="none"/><path d="M234.69464,184.81519c0,0.5 -0.5,0.5 -0.5,0.5l-0.38512,-0.01338c-1.44082,0.72041 -3.31703,0.42347 -4.89127,1.21059c0,0 -0.44721,0.22361 -0.67082,-0.22361c-0.22361,-0.44721 0.22361,-0.67082 0.22361,-0.67082c1.64124,-0.82062 3.61498,-0.54254 5.10873,-1.28941l0.61488,-0.01338c0,0 0.5,0 0.5,0.5z" fill="#ffffff" stroke="none"/><path d="M254.15221,188.27237c-0.75535,3.04571 -5.33824,0.89364 -6.0521,0.89364c-0.96806,0 -3.99965,-1.64944 -4.98124,-4.575c-1.08517,-3.23426 -0.45802,-5.02069 4.84444,-6.48585c5.01812,-1.38659 6.55291,8.69945 6.1889,10.16721z" fill="#3c3c3c" stroke="#000000"/><path d="M245.0261,181.46707c0,-0.27614 0.22386,-0.5 0.5,-0.5c0.27614,0 0.5,0.22386 0.5,0.5c0,0.27614 -0.22386,0.5 -0.5,0.5c-0.27614,0 -0.5,-0.22386 -0.5,-0.5z" fill="#ffffff" stroke="none"/><path d="M249.07346,180.65523c0,-0.27614 0.22386,-0.5 0.5,-0.5c0.27614,0 0.5,0.22386 0.5,0.5c0,0.27614 -0.22386,0.5 -0.5,0.5c-0.27614,0 -0.5,-0.22386 -0.5,-0.5z" fill="#ffffff" stroke="none"/><path d="M251.56964,184.19019c0,0.5 -0.5,0.5 -0.5,0.5l-0.38512,-0.01338c-1.44082,0.72041 -3.31703,0.42347 -4.89127,1.21059c0,0 -0.44721,0.22361 -0.67082,-0.22361c-0.22361,-0.44721 0.22361,-0.67082 0.22361,-0.67082c1.64124,-0.82062 3.61498,-0.54254 5.10873,-1.28941l0.61488,-0.01338c0,0 0.5,0 0.5,0.5z" fill="#ffffff" stroke="none"/><path d="M241.94464,169.56519c0.95695,0.19139 -1.19597,13.10388 -0.63013,19.26183c0,0 0.11317,1.24487 -1.1317,1.35804c-1.24487,0.11317 -1.35804,-1.1317 -1.35804,-1.1317c-0.56169,-6.2405 0.42853,-19.4499 0.61987,-19.48817c0.19134,-0.03827 1.54305,-0.19139 2.5,0z" fill="#ab6e00" stroke="#000000"/><path d="M239.00778,170.44275c1.61143,-0.15346 2.31772,-0.2438 3.87372,-0.125c0.70129,0.05354 9.73986,6.19338 8.87407,6.98274c-0.59941,0.54649 -8.42116,-1.98822 -11.10543,-2.75374c-2.78278,0.55271 -10.28462,3.71388 -10.91614,2.61196c-0.71852,-0.96065 7.40342,-6.53785 9.27379,-6.71596z" fill="#cccccc" stroke="#000000"/><path d="M237.56964,171.69019c0,-0.27614 0.22386,-0.5 0.5,-0.5c0.27614,0 0.5,0.22386 0.5,0.5c0,0.27614 -0.22386,0.5 -0.5,0.5c-0.27614,0 -0.5,-0.22386 -0.5,-0.5z" fill="#000000" stroke="none"/><path d="M242.31964,171.44019c0,-0.27614 0.22386,-0.5 0.5,-0.5c0.27614,0 0.5,0.22386 0.5,0.5c0,0.27614 -0.22386,0.5 -0.5,0.5c-0.27614,0 -0.5,-0.22386 -0.5,-0.5z" fill="#000000" stroke="none"/><path d="M241.19464,171.81519c0.5,0 0.5,0.5 0.5,0.5v0.125c-0.11026,2.00276 -2.58066,1.91313 -2.625,-0.125c0,0 0,-0.5 0.5,-0.5c0.5,0 0.5,0.5 0.5,0.5c-0.02813,0.80996 0.70569,0.77937 0.625,0.125v-0.125c0,0 0,-0.5 0.5,-0.5z" fill="#000000" stroke="none"/></g></g></svg>