<svg version="1.1" xmlns="http://www.w3.org/2000/svg" xmlns:xlink="http://www.w3.org/1999/xlink" width="22.32784" height="21.07481" viewBox="0,0,22.32784,21.07481"><g transform="translate(-228.83608,-169.4626)"><g data-paper-data="{&quot;isPaintingLayer&quot;:true}" fill-rule="nonzero" stroke-width="0.5" stroke-linecap="butt" stroke-linejoin="miter" stroke-miterlimit="10" stroke-dasharray="" stroke-dashoffset="0" style="mix-blend-mode: normal"><path d="M239.62349,176.25001c0.29104,0 0.56549,0.07105 0.80695,0.19674c1.90254,-2.26765 4.37106,-4.09841 6.45562,-6.18418c0,0 1.23744,-1.23744 2.47487,0c1.23744,1.23744 0,2.47487 0,2.47487c-2.05753,2.05638 -4.51191,3.85098 -6.36679,6.10103c0.08339,0.20409 0.12936,0.42744 0.12936,0.66153c0,0.23123 -0.04485,0.45198 -0.12631,0.65404c0.9359,0.41619 2.11174,0.82871 2.55108,1.11026c1.16605,0.74724 2.14219,1.76355 3.29596,2.52961l1.37249,1.08957c0,0 1.36652,1.09322 0.2733,2.45974c-1.09322,1.36652 -2.45974,0.2733 -2.45974,0.2733l-1.12751,-0.91043c-1.12086,-0.74994 -2.07085,-1.73921 -3.20404,-2.47039c-1.10679,-0.71415 -2.46917,-1.03216 -3.58537,-1.71081c-2.29631,2.94974 -4.72942,5.76705 -8.30051,7.33361l0.29808,-0.12107c0,0 -1.23744,1.23744 -2.47487,0c-1.23744,-1.23744 0,-2.47487 0,-2.47487l0.79808,-0.62107c2.84222,-1.1809 4.88398,-3.4809 6.73943,-5.91129c-0.18942,-0.27965 -0.30007,-0.61701 -0.30007,-0.98021c0,-0.2731 0.06256,-0.53159 0.17413,-0.76193c-1.14508,-0.84821 -2.47886,-1.49547 -3.45678,-2.54757c-1.12603,-1.21143 -2.13955,-2.53854 -3.37998,-3.63254c0,0 -1.30797,-1.16264 -0.14533,-2.4706c1.16264,-1.30797 2.4706,-0.14533 2.4706,-0.14533c1.31574,1.17762 2.43756,2.55606 3.62002,3.86746c0.85011,0.94281 1.93866,1.55821 2.97346,2.26116c0.15663,-0.04599 0.32238,-0.07066 0.49389,-0.07066z" fill="#ff0000" stroke="#000000"/><path d="M238.14849,178.60001c0,-0.27614 0.22386,-0.5 0.5,-0.5c0.27614,0 0.5,0.22386 0.5,0.5c0,0.27614 -0.22386,0.5 -0.5,0.5c-0.27614,0 -0.5,-0.22386 -0.5,-0.5z" fill="#000000" stroke="none"/><path d="M240.74849,178.70001c0,-0.27614 0.22386,-0.5 0.5,-0.5c0.27614,0 0.5,0.22386 0.5,0.5c0,0.27614 -0.22386,0.5 -0.5,0.5c-0.27614,0 -0.5,-0.22386 -0.5,-0.5z" fill="#000000" stroke="none"/><path d="M240.84849,182.20001c-0.5,0 -0.5,-0.5 -0.5,-0.5l0.00971,-0.20194c-0.24777,-1.26858 -0.89789,-0.38946 -1.24547,0.48764c0,0 -0.1857,0.46424 -0.64993,0.27854c-0.46424,-0.1857 -0.27854,-0.64993 -0.27854,-0.64993c0.68002,-1.68652 2.66526,-2.71163 3.15453,-0.31236l0.00971,0.39806c0,0 0,0.5 -0.5,0.5z" fill="#000000" stroke="none"/></g></g></svg>