<svg version="1.1" xmlns="http://www.w3.org/2000/svg" xmlns:xlink="http://www.w3.org/1999/xlink" width="11.98045" height="12.42939" viewBox="0,0,11.98045,12.42939"><g transform="translate(-233.98427,-173.7853)"><g data-paper-data="{&quot;isPaintingLayer&quot;:true}" fill-rule="nonzero" stroke-width="0.5" stroke-linecap="butt" stroke-linejoin="miter" stroke-miterlimit="10" stroke-dasharray="" stroke-dashoffset="0" style="mix-blend-mode: normal"><path d="M245.71471,184.33303c-0.75535,3.04571 -5.33824,0.89364 -6.0521,0.89364c-0.96806,0 -3.99965,-1.64944 -4.98124,-4.575c-1.08517,-3.23426 -0.45802,-5.02069 4.84444,-6.48585c5.01812,-1.38659 6.55291,8.69945 6.1889,10.16721z" fill="#3c3c3c" stroke="#000000"/><path d="M236.5886,177.52773c0,-0.27614 0.22386,-0.5 0.5,-0.5c0.27614,0 0.5,0.22386 0.5,0.5c0,0.27614 -0.22386,0.5 -0.5,0.5c-0.27614,0 -0.5,-0.22386 -0.5,-0.5z" fill="#ffffff" stroke="none"/><path d="M240.63596,176.71589c0,-0.27614 0.22386,-0.5 0.5,-0.5c0.27614,0 0.5,0.22386 0.5,0.5c0,0.27614 -0.22386,0.5 -0.5,0.5c-0.27614,0 -0.5,-0.22386 -0.5,-0.5z" fill="#ffffff" stroke="none"/><path d="M243.13214,180.25085c0,0.5 -0.5,0.5 -0.5,0.5l-0.38512,-0.01338c-1.44082,0.72041 -3.31703,0.42347 -4.89127,1.21059c0,0 -0.44721,0.22361 -0.67082,-0.22361c-0.22361,-0.44721 0.22361,-0.67082 0.22361,-0.67082c1.64124,-0.82062 3.61498,-0.54254 5.10873,-1.28941l0.61488,-0.01338c0,0 0.5,0 0.5,0.5z" fill="#ffffff" stroke="none"/></g></g></svg>