<svg version="1.1" xmlns="http://www.w3.org/2000/svg" xmlns:xlink="http://www.w3.org/1999/xlink" width="22.62482" height="21.11987" viewBox="0,0,22.62482,21.11987"><g transform="translate(-228.68759,-169.48354)"><g data-paper-data="{&quot;isPaintingLayer&quot;:true}" fill-rule="nonzero" stroke-width="0.5" stroke-linecap="butt" stroke-linejoin="miter" stroke-miterlimit="10" stroke-dasharray="" stroke-dashoffset="0" style="mix-blend-mode: normal"><path d="M241.1931,169.73354c0.95695,0.19139 -1.19597,13.10388 -0.63013,19.26183c0,0 0.11317,1.24487 -1.1317,1.35804c-1.24487,0.11317 -1.35804,-1.1317 -1.35804,-1.1317c-0.56169,-6.2405 0.42853,-19.4499 0.61987,-19.48817c0.19134,-0.03827 1.54305,-0.19139 2.5,0z" fill="#ab6e00" stroke="#000000"/><path d="M238.25624,170.6111c1.61143,-0.15346 2.31772,-0.2438 3.87372,-0.125c0.70129,0.05354 9.73986,6.19338 8.87407,6.98274c-0.59941,0.54649 -8.42116,-1.98822 -11.10543,-2.75374c-2.78278,0.55271 -10.28462,3.71388 -10.91614,2.61196c-0.71852,-0.96065 7.40342,-6.53785 9.27379,-6.71596z" fill="#cccccc" stroke="#000000"/><path d="M236.8181,171.85854c0,-0.27614 0.22386,-0.5 0.5,-0.5c0.27614,0 0.5,0.22386 0.5,0.5c0,0.27614 -0.22386,0.5 -0.5,0.5c-0.27614,0 -0.5,-0.22386 -0.5,-0.5z" fill="#000000" stroke="none"/><path d="M241.5681,171.60854c0,-0.27614 0.22386,-0.5 0.5,-0.5c0.27614,0 0.5,0.22386 0.5,0.5c0,0.27614 -0.22386,0.5 -0.5,0.5c-0.27614,0 -0.5,-0.22386 -0.5,-0.5z" fill="#000000" stroke="none"/><path d="M240.4431,171.98354c0.5,0 0.5,0.5 0.5,0.5v0.125c-0.11026,2.00276 -2.58066,1.91313 -2.625,-0.125c0,0 0,-0.5 0.5,-0.5c0.5,0 0.5,0.5 0.5,0.5c-0.02813,0.80996 0.70569,0.77937 0.625,0.125v-0.125c0,0 0,-0.5 0.5,-0.5z" fill="#000000" stroke="none"/></g></g></svg>