<svg version="1.1" xmlns="http://www.w3.org/2000/svg" xmlns:xlink="http://www.w3.org/1999/xlink" width="18.27979" height="9.7605" viewBox="0,0,18.27979,9.7605"><g transform="translate(-231.83637,-171.34323)"><g data-paper-data="{&quot;isPaintingLayer&quot;:true}" fill-rule="nonzero" stroke-width="0.5" stroke-linecap="butt" stroke-linejoin="miter" stroke-miterlimit="10" stroke-dasharray="" stroke-dashoffset="0" style="mix-blend-mode: normal"><path d="M249.0525,179.53135l-1.22297,0.48919l-0.14112,-0.3528c-2.08786,1.06747 -4.08494,0.89586 -6.94874,1.186l-1.25,0.125c0,0 -0.5635,0.05635 -0.96986,-0.28609c-1.70578,0.18543 -3.45058,-0.08397 -5.15452,-0.0827c0,0 -1.25,0 -1.25,-1.25c0,-0.16995 0.02311,-0.3168 0.06304,-0.44368c-0.35614,-0.8365 0.43696,-1.43132 0.43696,-1.43132l0.64295,-0.4677c1.60495,-0.83621 2.88472,-3.56784 2.88472,-3.56784l6.02898,-1.83818l7.63108,3.76041l0.06226,2.98832c0,0 -0.33805,0.99414 -0.81279,1.1714zM237.15858,178.1872c-0.03782,0.02909 -0.07574,0.05799 -0.11378,0.08664c0.04683,0 0.09364,-0.00023 0.14041,-0.00073c-0.00987,-0.02819 -0.01876,-0.05685 -0.02662,-0.08592z" fill="#bab900" stroke="#000000"/><path d="M235.4903,177.60994c0,-0.69036 0.55964,-1.25 1.25,-1.25c0.69036,0 1.25,0.55964 1.25,1.25c0,0.69036 -0.55964,1.25 -1.25,1.25c-0.69036,0 -1.25,-0.55964 -1.25,-1.25z" fill="#bab900" stroke="none"/><path d="M237.9903,176.85994c0,-0.27614 0.22386,-0.5 0.5,-0.5c0.27614,0 0.5,0.22386 0.5,0.5c0,0.27614 -0.22386,0.5 -0.5,0.5c-0.27614,0 -0.5,-0.22386 -0.5,-0.5z" fill="#000000" stroke="none"/><path d="M243.6153,176.35994c0,-0.27614 0.22386,-0.5 0.5,-0.5c0.27614,0 0.5,0.22386 0.5,0.5c0,0.27614 -0.22386,0.5 -0.5,0.5c-0.27614,0 -0.5,-0.22386 -0.5,-0.5z" fill="#000000" stroke="none"/></g></g></svg>