<svg version="1.1" xmlns="http://www.w3.org/2000/svg" xmlns:xlink="http://www.w3.org/1999/xlink" width="18.86447" height="9.74257" viewBox="0,0,18.86447,9.74257"><g transform="translate(-231.83637,-171.36116)"><g data-paper-data="{&quot;isPaintingLayer&quot;:true}" fill-rule="nonzero" stroke-width="0.5" stroke-linecap="butt" stroke-linejoin="miter" stroke-miterlimit="10" stroke-dasharray="" stroke-dashoffset="0" style="mix-blend-mode: normal"><path d="M249.8653,178.35994c0,0.53655 -0.33806,0.99415 -0.8128,1.17141l-1.22297,0.48919l-0.14112,-0.3528c-2.08786,1.06747 -4.08494,0.89586 -6.94874,1.186l-1.25,0.125c0,0 -0.5635,0.05635 -0.96986,-0.28609c-1.70578,0.18543 -3.45058,-0.08397 -5.15452,-0.0827c0,0 -1.25,0 -1.25,-1.25c0,-0.16995 0.02311,-0.3168 0.06304,-0.44368c-0.35614,-0.8365 0.43696,-1.43132 0.43696,-1.43132l0.64295,-0.4677c1.60495,-0.83621 1.75041,-2.27788 2.88472,-3.56784c1.46946,-1.6711 3.92467,-1.82653 6.02898,-1.83818c2.43487,0.21919 10.52129,2.4847 7.6826,6.58402c0.00709,0.05389 0.01075,0.10887 0.01075,0.1647zM237.15858,178.1872c-0.03782,0.02909 -0.07574,0.05799 -0.11378,0.08664c0.04683,0 0.09364,-0.00023 0.14041,-0.00073c-0.00987,-0.02819 -0.01876,-0.05685 -0.02662,-0.08592z" fill="#dddd00" stroke="#000000"/><path d="M235.4903,177.98494c0,-0.69036 0.55964,-1.25 1.25,-1.25c0.69036,0 1.25,0.55964 1.25,1.25c0,0.69036 -0.55964,1.25 -1.25,1.25c-0.69036,0 -1.25,-0.55964 -1.25,-1.25z" fill="#dddd00" stroke="none"/><path d="M237.9903,176.85994c0,-0.27614 0.22386,-0.5 0.5,-0.5c0.27614,0 0.5,0.22386 0.5,0.5c0,0.27614 -0.22386,0.5 -0.5,0.5c-0.27614,0 -0.5,-0.22386 -0.5,-0.5z" fill="#000000" stroke="none"/><path d="M243.6153,176.35994c0,-0.27614 0.22386,-0.5 0.5,-0.5c0.27614,0 0.5,0.22386 0.5,0.5c0,0.27614 -0.22386,0.5 -0.5,0.5c-0.27614,0 -0.5,-0.22386 -0.5,-0.5z" fill="#000000" stroke="none"/><path d="M247.27939,175.82418c-0.66895,0 -0.74124,-0.59666 -0.74905,-0.72562c-0.54943,-0.51855 -1.59942,-0.49314 -2.33636,-0.85356c0,0 -0.67082,-0.33541 -0.33541,-1.00623c0.33541,-0.67082 1.00623,-0.33541 1.00623,-0.33541c1.18157,0.60782 2.05591,0.37792 3.00024,1.4523l0.16435,0.71852c0,0 0,0.75 -0.75,0.75zM246.61279,175.18506l0.08095,0.10764c-0.02502,-0.03803 -0.05206,-0.07384 -0.08095,-0.10764z" fill="#ffffff" stroke="none"/><path d="M247.90439,176.57418c0,-0.41421 0.33579,-0.75 0.75,-0.75c0.41421,0 0.75,0.33579 0.75,0.75c0,0.41421 -0.33579,0.75 -0.75,0.75c-0.41421,0 -0.75,-0.33579 -0.75,-0.75z" fill="#ffffff" stroke="none"/></g></g></svg>