<svg version="1.1" xmlns="http://www.w3.org/2000/svg" xmlns:xlink="http://www.w3.org/1999/xlink" width="18.09986" height="14.70266" viewBox="0,0,18.09986,14.70266"><g transform="translate(-230.9492,-172.72888)"><g data-paper-data="{&quot;isPaintingLayer&quot;:true}" fill-rule="nonzero" stroke-width="0.5" stroke-linejoin="miter" stroke-miterlimit="10" stroke-dasharray="" stroke-dashoffset="0" style="mix-blend-mode: normal"><path d="M231.32339,175.69207l4.66221,-2.71298l7.7178,0.02322l4.97321,2.74055l-8.44801,11.27807z" fill="#dfecff" stroke="#000000" stroke-linecap="butt"/><path d="M231.4679,175.92341h17" fill="none" stroke="#000000" stroke-linecap="round"/><path d="M235.4679,176.04841l0.5,-2.875" fill="none" stroke="#000000" stroke-linecap="round"/><path d="M244.7179,175.54841l-1,-2.5" fill="none" stroke="#000000" stroke-linecap="round"/><path d="M243.4679,175.79841l-3.375,10.625l-3.25,-10.5" fill="none" stroke="#000000" stroke-linecap="round"/><path d="M237.7179,177.17341c0,-0.27614 0.22386,-0.5 0.5,-0.5c0.27614,0 0.5,0.22386 0.5,0.5c0,0.27614 -0.22386,0.5 -0.5,0.5c-0.27614,0 -0.5,-0.22386 -0.5,-0.5z" fill="#000000" stroke="none" stroke-linecap="butt"/><path d="M241.3429,177.29841c0,-0.27614 0.22386,-0.5 0.5,-0.5c0.27614,0 0.5,0.22386 0.5,0.5c0,0.27614 -0.22386,0.5 -0.5,0.5c-0.27614,0 -0.5,-0.22386 -0.5,-0.5z" fill="#000000" stroke="none" stroke-linecap="butt"/><path d="M241.24525,179.88238c0.41603,0.27735 0.13868,0.69338 0.13868,0.69338l-0.16603,0.09765c-0.34085,1.98664 -2.21814,0.71462 -2.25,-0.75c0,0 0,-0.5 0.5,-0.5c0.5,0 0.5,0.5 0.5,0.5c-0.00901,0.25957 0.17342,0.56842 0.26589,0.71896l0.31809,-0.62131c0,0 0.27735,-0.41603 0.69338,-0.13868z" fill="#000000" stroke="none" stroke-linecap="butt"/></g></g></svg>