<svg version="1.1" xmlns="http://www.w3.org/2000/svg" xmlns:xlink="http://www.w3.org/1999/xlink" width="17.39205" height="17.97888" viewBox="0,0,17.39205,17.97888"><g transform="translate(-231.30397,-171.08815)"><g data-paper-data="{&quot;isPaintingLayer&quot;:true}" fill-rule="nonzero" stroke-width="0.5" stroke-linecap="butt" stroke-linejoin="miter" stroke-miterlimit="10" stroke-dasharray="" stroke-dashoffset="0" style="mix-blend-mode: normal"><path d="M243.89652,177.1482c0.75036,-0.27471 2.32171,-1.04276 3.11398,-0.58743c1.01989,0.58615 0.79752,1.43637 0.84135,2.31334c0.08997,1.80022 0.32866,3.60751 0.48496,5.40347c0.04446,0.51086 0.21493,1.86999 0.0117,2.27461c-0.63169,1.25765 -1.12427,0.94778 -2.1482,1.04355c-1.93617,0.18108 -3.86626,0.57709 -5.81269,0.55578c-0.97242,-0.37349 -2.06779,-1.11437 -3.16136,-0.81748c-1.15297,0.31301 -3.42498,1.74675 -4.57808,1.44033c-1.2671,-0.33671 -0.95646,-1.4406 -1.0396,-2.2412c-0.28365,-2.73116 0.61656,-5.57971 0.89435,-8.3586c0,0 0.08083,-0.80833 0.88916,-0.7275c0.45791,0.04579 5.23274,0.10974 5.23274,0.10974c0,0 -0.34752,1.57794 0.1921,1.54812c0.27268,-0.01506 1.95935,0.89642 2.67701,0.54029c0.35203,-0.17469 0.46472,-2.27263 0.46472,-2.27263c0,0 1.48851,-0.13481 1.93786,-0.22439z" fill="#a87143" stroke="#000000"/><path d="M239.05677,175.87468c-0.21868,-0.01487 -0.34665,1.67293 -0.34665,1.67293c0,0 -3.44965,0.21172 -4.17965,0.3761l-0.61263,0.1832c0,0 -0.47196,0.13965 -0.78985,-0.16582c-0.67461,-0.37076 -0.32272,-1.07064 -0.32272,-1.07064c0.89041,-1.76899 2.8334,-4.9498 4.88344,-5.48934c0.59695,-0.15711 1.24383,0.06302 1.85122,-0.04697c1.45934,-0.26424 3.00642,-0.26949 4.28593,0.71067c1.40649,1.07741 1.66046,2.56302 2.67176,3.81855c0.2192,0.10241 0.46474,0.31992 0.43208,0.77866c-0.05769,0.81031 -0.86801,0.75261 -0.86801,0.75261l-0.17622,-0.07852c-1.25806,0.2601 -3.94841,0.30326 -3.94841,0.30326c0,0 0.26741,-1.20699 -0.24576,-1.5624c-0.69787,-0.48333 -2.26951,-0.15744 -2.63452,-0.18227z" fill="#a87143" stroke="#000000"/><path d="M237.0481,173.9499c0,-0.17946 0.14549,-0.32494 0.32495,-0.32494c0.17946,0 0.32494,0.14548 0.32494,0.32494c0,0.17946 -0.14548,0.32495 -0.32494,0.32495c-0.17946,0 -0.32495,-0.14549 -0.32495,-0.32495z" fill="#000000" stroke="none"/><path d="M242.08472,173.9499c0,-0.17946 0.14549,-0.32494 0.32495,-0.32494c0.17946,0 0.32494,0.14548 0.32494,0.32494c0,0.17946 -0.14548,0.32495 -0.32494,0.32495c-0.17946,0 -0.32495,-0.14549 -0.32495,-0.32495z" fill="#000000" stroke="none"/><path d="M244.03438,180.77371c0.32495,0 0.32494,0.32494 0.32494,0.32494l-0.02324,0.28316c-0.76009,1.89037 -0.98573,4.46906 -3.67208,4.50732c-1.04056,-0.25297 -2.70135,-0.21049 -3.33003,-1.2997c-0.46889,-0.81236 -0.20333,-2.49491 -0.3627,-3.43735c0,0 -0.05343,-0.32053 0.2671,-0.37394c0.32053,-0.05342 0.37394,0.2671 0.37394,0.2671c0.13969,0.8493 -0.11057,2.51142 0.28718,3.22399c0.475,0.85097 2.05905,0.77178 2.8439,0.9749c2.23689,0.06647 2.409,-2.64615 2.98926,-4.10367l-0.02324,-0.04179c0,0 0,-0.32494 0.32495,-0.32494z" fill="#000000" stroke="none"/><path d="M238.8434,178.77306c0.04542,-0.17591 0.10339,-0.49007 0.12056,-0.63192c0.07479,-0.61753 0.25709,-1.2274 0.25909,-1.86218l0.00107,-0.13357c0.70614,0.04486 2.09205,-0.00961 2.29325,0.16092c0.4304,0.36482 -0.1704,2.56453 -0.12013,3.0697c-0.06621,0.12024 -2.43717,-0.67227 -2.55385,-0.60295z" data-paper-data="{&quot;noHover&quot;:false,&quot;origItem&quot;:[&quot;Path&quot;,{&quot;applyMatrix&quot;:true,&quot;segments&quot;:[[[240.47783,171.85689],[-0.0645,-0.13461],[0.01167,-0.00479]],[240.49628,171.84984],[[240.80578,171.75196],[0,0],[2.66965,-1.11709]],[[241.18884,175.45251],[1.48053,-0.66033],[0.63101,0.2246]],[[242.44245,175.63284],[-0.10189,0.18501],[-0.07737,-0.77732]],[[242.62408,170.98821],[0.66227,0.56136],[-0.30959,-0.26242]],[[239.15439,170.74473],[1.08656,0.06903],[0,0]],[[239.15439,170.94918],[0,0],[-0.00307,0.97675]],[[238.77564,173.76027],[0.11508,-0.95021],[-0.02643,0.21826]],[[238.58294,174.71722],[0.06989,-0.27068],[0.17953,-0.10665]],[[239.8062,174.9401],[-0.56371,-0.19859],[-0.02575,-0.03285]],[[239.72907,174.83704],[0.02567,0.03587],[-0.37924,-0.52984]],[[239.54432,172.19545],[0.17267,0.66726],[0,0]],[[239.90812,171.58911],[-0.48507,0.12127],[0.34418,-0.08605]]],&quot;closed&quot;:true}]}" fill="#fffd00" stroke="none"/><path d="M240.8531,179.2324c0,0 0.45902,0.23743 0.52523,0.11719c-0.05028,-0.50517 0.54844,-2.65366 0.11804,-3.01848c-0.2012,-0.17055 -1.54876,-0.11337 -2.25491,-0.15823v0.13286c-0.00199,0.63477 -0.17135,1.20936 -0.24614,1.82689c-0.01718,0.14184 -0.07981,0.446 -0.12524,0.62191c0.11667,-0.06931 0.58696,0.07787 0.58696,0.07787l0.47842,-1.47316c0,0 -0.37181,-0.78802 0.34889,-0.79621c0.65604,-0.00745 0.26518,0.82613 0.26518,0.82613zM238.67926,175.91156c-0.01242,-0.04747 -0.01369,-0.1043 0.00325,-0.17205c0.07881,-0.31524 0.39405,-0.23643 0.39405,-0.23643c0.58204,0.15062 2.37233,-0.05208 2.78415,0.28987c0.80664,0.66978 0.16625,2.93621 0.11803,3.80533c-0.64966,0.61461 -1.62817,0.38819 -2.26713,-0.09735c-0.32371,-0.24599 -1.07993,0.08403 -1.3498,-0.20341c-0.42349,-0.45105 0.23194,-2.40643 0.22976,-2.99179v-0.16247c0,0 0,-0.13569 0.08768,-0.23171z" fill="#000000" stroke="none"/><path d="M240.97489,178.93818c0,0.25 0.03947,0.30263 0.03947,0.30263c-0.43972,-0.01648 -0.98098,-0.34451 -1.41391,-0.36916c0,0 -0.24926,-0.01917 -0.23009,-0.26844c0.01917,-0.24926 0.26844,-0.23009 0.26844,-0.23009c0.38872,0.03559 0.69416,0.3387 1.03346,0.31505h0.05263c0,0 0.25,0 0.25,0.25z" fill="#fffd00" stroke="none"/></g></g></svg>