<svg version="1.1" xmlns="http://www.w3.org/2000/svg" xmlns:xlink="http://www.w3.org/1999/xlink" width="8.34487" height="13.86048" viewBox="0,0,8.34487,13.86048"><g transform="translate(-235.82757,-173.06976)"><g data-paper-data="{&quot;isPaintingLayer&quot;:true}" fill-rule="nonzero" stroke-width="0.5" stroke-linecap="butt" stroke-linejoin="miter" stroke-miterlimit="10" stroke-dasharray="" stroke-dashoffset="0" style="mix-blend-mode: normal"><path d="M239.63551,173.66909c0.10812,0.04872 0.17433,0.096 0.17433,0.096l1.00087,0.73163c1.54009,2.10685 1.69339,4.03783 2.57309,6.40711c2.17464,3.85733 -2.72275,7.91502 -6.01122,4.48234c-2.83738,-2.9618 -0.2374,-8.22215 0.51088,-11.29988c0,0 0.24254,-0.97014 1.21268,-0.72761c0.25448,0.06362 0.42551,0.1773 0.53938,0.31041z" fill="#1ee4ff" stroke="#000000"/><path d="M237.4786,178.82883c0,-0.27614 0.22386,-0.5 0.5,-0.5c0.27614,0 0.5,0.22386 0.5,0.5c0,0.27614 -0.22386,0.5 -0.5,0.5c-0.27614,0 -0.5,-0.22386 -0.5,-0.5z" fill="#000000" stroke="none"/><path d="M239.8536,179.20383c0,-0.27614 0.22386,-0.5 0.5,-0.5c0.27614,0 0.5,0.22386 0.5,0.5c0,0.27614 -0.22386,0.5 -0.5,0.5c-0.27614,0 -0.5,-0.22386 -0.5,-0.5z" fill="#000000" stroke="none"/><path d="M242.25595,183.1628c0.41603,0.27735 0.13868,0.69338 0.13868,0.69338l-0.31247,0.4512c-1.61211,1.61211 -4.37934,0.364 -4.47855,-1.97855c0,0 0,-0.5 0.5,-0.5c0.5,0 0.5,0.5 0.5,0.5c-0.12768,1.5152 1.81883,2.22406 2.77145,1.27145l0.18753,-0.2988c0,0 0.27735,-0.41603 0.69338,-0.13868z" fill="#000000" stroke="none"/></g></g></svg>