<svg version="1.1" xmlns="http://www.w3.org/2000/svg" xmlns:xlink="http://www.w3.org/1999/xlink" width="20.87317" height="15.18898" viewBox="0,0,20.87317,15.18898"><g transform="translate(-229.56342,-172.32385)"><g data-paper-data="{&quot;isPaintingLayer&quot;:true}" fill-rule="nonzero" stroke-width="0.5" stroke-linecap="butt" stroke-linejoin="miter" stroke-miterlimit="10" stroke-dasharray="" stroke-dashoffset="0" style="mix-blend-mode: normal"><path d="M231.00876,176.98718c1.66019,-0.5534 2.21359,1.1068 2.21359,1.1068l-0.21657,-0.18872c1.32198,1.49071 2.06854,3.08276 3.39735,4.53763c0.51156,0.56009 1.08976,2.12251 1.629,1.58902c3.04828,-3.01579 6.64741,-6.71002 8.87556,-10.55203c0,0 0.88178,-1.51161 2.39339,-0.62984c1.51162,0.88178 0.62984,2.39339 0.62984,2.39339c-2.31821,3.95382 -5.63602,6.89005 -8.81751,10.0412c-0.62323,0.6173 -0.901,1.70788 -1.7355,1.97821c-1.05865,0.34294 -2.30146,0.10567 -3.32106,-0.34016c-2.64124,-1.15491 -3.84237,-4.70224 -5.6526,-6.67604l-0.50229,-1.04586c0,0 -0.5534,-1.66019 1.1068,-2.21359z" fill="#00ff27" stroke="#000000"/><path d="M235.59787,184.59976c0,-0.27614 0.22386,-0.5 0.5,-0.5c0.27614,0 0.5,0.22386 0.5,0.5c0,0.27614 -0.22386,0.5 -0.5,0.5c-0.27614,0 -0.5,-0.22386 -0.5,-0.5z" fill="#000000" stroke="none"/><path d="M238.54232,184.59976c0,-0.27614 0.22386,-0.5 0.5,-0.5c0.27614,0 0.5,0.22386 0.5,0.5c0,0.27614 -0.22386,0.5 -0.5,0.5c-0.27614,0 -0.5,-0.22386 -0.5,-0.5z" fill="#000000" stroke="none"/><path d="M238.53641,185.93353c0.13413,-0.07383 0.35791,-0.13333 0.58168,0.09045c0.35355,0.35355 0,0.70711 0,0.70711l-0.40911,0.202c-1.11348,0 -1.77905,-0.03692 -2.65873,-0.78704c0,0 -0.37963,-0.3254 -0.05423,-0.70502c0.3254,-0.37963 0.70502,-0.05423 0.70502,-0.05423c0.64361,0.55498 1.05681,0.54988 1.83536,0.54673z" fill="#000000" stroke="none"/></g></g></svg>