<svg version="1.1" xmlns="http://www.w3.org/2000/svg" xmlns:xlink="http://www.w3.org/1999/xlink" width="19.99882" height="17.6952" viewBox="0,0,19.99882,17.6952"><g transform="translate(-229.95425,-165.68594)"><g data-paper-data="{&quot;isPaintingLayer&quot;:true}" fill-rule="nonzero" stroke-width="0.5" stroke-linecap="butt" stroke-linejoin="miter" stroke-miterlimit="10" stroke-dasharray="" stroke-dashoffset="0" style="mix-blend-mode: normal"><path d="M243.89505,166.29956c0,0 4.57561,2.19966 4.29119,4.47499c-0.28441,2.27535 -0.54387,3.85431 0.1432,6.07073c0,0 0.19538,0.65126 -0.0971,1.22782c0.06128,0.05339 0.11638,0.10922 0.16493,0.16754c0.80113,0.96241 1.6047,2.37788 1.19553,3.56135c-0.32253,0.93289 -1.82676,0.76342 -2.77969,1.02072c-3.558,0.96077 -7.9165,-0.67384 -11.66347,-0.19769c0,0 -1.56928,0.19615 -1.76543,-1.37313c-0.06229,-0.49834 0.05467,-2.19419 0.7556,-3.33145c0.70093,-1.13726 1.80211,-0.81842 1.80211,-0.81842c0.12138,0 0.25838,-0.00195 0.4093,-0.00538c-0.64879,-1.7062 -1.16888,-2.75441 -2.97312,-3.76135c-1.80424,-1.00693 -3.08118,-3.14789 -3.08118,-3.14789c0,0 1.95368,-1.16725 4.65046,0.40165c2.69678,1.5689 3.57687,3.29748 4.64987,6.15534c0,0 0.03438,0.09168 0.06321,0.23798c0.3568,-0.00977 0.7237,-0.01784 1.09589,-0.02293c0.21543,-2.50052 -1.31238,-3.86924 -1.94996,-6.45027c-0.63758,-2.58104 -1.24346,-4.24035 -1.24346,-4.24035c0,0 4.07333,2.47044 4.10584,2.82212c0.03253,0.35168 2.45942,4.90861 2.25281,7.92477c0.41595,0.02492 0.82087,0.05845 1.20747,0.10248c-0.57712,-2.36018 -0.39286,-4.24411 -0.08138,-6.73597c0.31149,-2.49187 -1.15264,-4.08269 -1.15264,-4.08269z" fill="#00e63a" stroke="#000000"/><path d="M237.11543,178.59447c0,-0.43671 0.35403,-0.79074 0.79074,-0.79074c0.43671,0 0.79074,0.35403 0.79074,0.79074c0,0.43671 -0.35403,0.79074 -0.79074,0.79074c-0.43671,0 -0.79074,-0.35403 -0.79074,-0.79074z" fill="#000000" stroke="none"/><path d="M245.10195,178.98985c0,-0.43671 0.35403,-0.79074 0.79074,-0.79074c0.43671,0 0.79074,0.35403 0.79074,0.79074c0,0.43671 -0.35403,0.79074 -0.79074,0.79074c-0.43671,0 -0.79074,-0.35403 -0.79074,-0.79074z" fill="#000000" stroke="none"/><path d="M244.36666,181.47479c-0.19179,0.76713 -0.95892,0.57535 -0.95892,0.57535l-0.36921,-0.13778c-1.41317,0.1231 -2.69362,-0.23398 -4.10439,-0.23398c0,0 -0.79074,0 -0.79074,-0.79074c0,-0.79074 0.79074,-0.79074 0.79074,-0.79074c1.35956,0 2.61739,0.36871 3.9612,0.24047l0.89598,0.17852c0,0 0.76713,0.19179 0.57535,0.95892z" fill="#000000" stroke="none"/></g></g></svg>