<svg version="1.1" xmlns="http://www.w3.org/2000/svg" xmlns:xlink="http://www.w3.org/1999/xlink" width="21.00183" height="18.63714" viewBox="0,0,21.00183,18.63714"><defs><radialGradient cx="250.24029" cy="184.48492" r="10.25091" gradientUnits="userSpaceOnUse" id="color-1"><stop offset="0" stop-color="#09ea00"/><stop offset="1" stop-color="#ff0000"/></radialGradient></defs><g transform="translate(-230.73846,-168.85992)"><g data-paper-data="{&quot;isPaintingLayer&quot;:true}" fill-rule="nonzero" stroke-width="0.5" stroke-linecap="butt" stroke-linejoin="miter" stroke-miterlimit="10" stroke-dasharray="" stroke-dashoffset="0" style="mix-blend-mode: normal"><path d="M240.49029,186.48492c-0.2245,0 -0.43912,-0.04227 -0.63634,-0.11929c-0.26351,0.39414 -0.56358,0.73457 -0.99539,0.88143c-0.98663,0.33558 -2.08661,-0.20119 -3.0876,-0.49115c-3.99764,-1.15805 -5.68539,-5.98186 -4.31096,-9.71393c1.2747,-3.46126 4.64173,-5.35838 8.18162,-4.05633c0.84324,0.31016 1.47228,1.81395 2.28468,1.43022c0.45141,-0.21322 0.50007,-0.95866 0.96207,-1.14784c3.93391,-1.61086 6.73885,0.91216 8.17753,4.17914c0.07207,0.95856 0.22607,1.96137 0.1521,2.9386c0.27228,0.46792 0.27228,0.97415 0.27228,0.97415l-0.06733,0.73076c-1.40792,4.63432 -4.28515,5.01688 -8.68267,5.01924c0,0 -1.02911,0 -1.50898,-0.78917c-0.22502,0.10533 -0.47615,0.16417 -0.74102,0.16417z" fill="url(#color-1)" stroke="#000000"/><path d="M244.86529,169.85992c0,0.75 -0.75,0.75 -0.75,0.75l-0.09467,-0.21967c-1.0294,1.0266 -1.80342,2.21776 -1.78033,3.71967c0,0 0,0.75 -0.75,0.75c-0.75,0 -0.75,-0.75 -0.75,-0.75c0.02136,-1.91934 0.8891,-3.44645 2.21967,-4.78033l1.15533,-0.21967c0,0 0.75,0 0.75,0.75z" fill="#06a900" stroke="#000000"/><path d="M235.99029,177.73492c0,-0.27614 0.22386,-0.5 0.5,-0.5c0.27614,0 0.5,0.22386 0.5,0.5c0,0.27614 -0.22386,0.5 -0.5,0.5c-0.27614,0 -0.5,-0.22386 -0.5,-0.5z" fill="#000000" stroke="none"/><path d="M243.99029,177.23492c0,-0.27614 0.22386,-0.5 0.5,-0.5c0.27614,0 0.5,0.22386 0.5,0.5c0,0.27614 -0.22386,0.5 -0.5,0.5c-0.27614,0 -0.5,-0.22386 -0.5,-0.5z" fill="#000000" stroke="none"/><path d="M239.45721,181.08359c-0.39703,0.35962 -0.63631,0.58396 -0.02558,1.06439c0.14129,0.11115 0.93582,-1.1967 0.31239,-1.05299l-0.12873,0.01493c0,0 -0.07025,0 -0.15808,-0.02633zM239.70016,180.11333l0.2864,0.01152c4.08492,1.59819 -3.68312,4.77767 -1.80637,0.86372c0.02993,-0.06242 0.73781,-0.76346 0.83155,-0.8572c0,0 0.34121,-0.34121 0.68842,-0.01803z" fill="#000000" stroke="none"/></g></g></svg>