<svg version="1.1" xmlns="http://www.w3.org/2000/svg" xmlns:xlink="http://www.w3.org/1999/xlink" width="8.11614" height="16.5068" viewBox="0,0,8.11614,16.5068"><g transform="translate(-235.22261,-165.31817)"><g data-paper-data="{&quot;isPaintingLayer&quot;:true}" fill-rule="nonzero" stroke-width="0.5" stroke-linecap="butt" stroke-linejoin="miter" stroke-miterlimit="10" stroke-dasharray="" stroke-dashoffset="0" style="mix-blend-mode: normal"><path d="M239.70469,175.52068c0.67561,-2.0911 0.5356,-4.77562 0.5356,-7.03576c0,0 0,-1.25 1.25,-1.25c1.25,0 1.25,1.25 1.25,1.25c0,2.66536 0.44816,4.98344 -0.625,7.875c-1.07925,2.90796 -1.44388,2.88262 -1.79592,3.208c-0.79912,0.7386 -1.42435,1.59412 -2.66232,2.00705c-1.23797,0.41293 -1.96378,0.03818 -2.18445,-0.39039c-0.22593,-0.4388 1.00392,-0.66181 1.89417,-1.71882c1.00232,-1.19007 1.66231,-1.85398 2.33792,-3.94508z" fill="#c40000" stroke="#000000"/><path d="M242.81742,165.81817c0,0.25 -0.25,0.25 -0.25,0.25l-0.00789,-0.05c-0.35644,0.26258 -0.47241,0.53246 -0.55929,0.91842c0.07026,0 0.14613,0 0.14613,0c0.08417,0 0.15862,0.04159 0.20393,0.10535c0.00219,-0.00006 0.00439,-0.00009 0.0066,-0.00009c0.13807,0 0.25,0.11193 0.25,0.25c0,0.02947 -0.0051,0.05774 -0.01446,0.08399c0.32407,0.1536 0.53756,0.44437 0.48959,0.91305c-0.00059,0.01626 -0.00261,0.03357 -0.0063,0.05198c-0.00937,0.04684 0.07809,0.33852 -0.00299,0.44093c-0.0663,0.08375 -0.19266,0.04094 -0.62946,-0.36582c-0.9745,-0.90748 -0.31187,0.64503 -1.22654,0.18813c-0.00409,-0.00204 -0.51265,-0.37554 -0.57509,-0.21943c0,0 -0.56653,0.17949 -0.79865,0.08664c-0.23212,-0.09285 0.70676,-1.42503 1.19998,-1.43263c0.07102,-0.10212 0.20866,-0.10212 0.20866,-0.10212h0.10526c0.04763,0 0.09211,-0.00283 0.13344,-0.0066c0.11701,-0.55904 0.29202,-0.94887 0.76919,-1.31182l0.30789,-0.05c0,0 0.25,0 0.25,0.25z" fill="#00d30c" stroke="#000000"/><path d="M240.43585,169.97606c0,-0.27614 0.22386,-0.5 0.5,-0.5c0.27614,0 0.5,0.22386 0.5,0.5c0,0.27614 -0.22386,0.5 -0.5,0.5c-0.27614,0 -0.5,-0.22386 -0.5,-0.5z" fill="#000000" stroke="none"/><path d="M241.38321,171.23922c0,-0.27614 0.22386,-0.5 0.5,-0.5c0.27614,0 0.5,0.22386 0.5,0.5c0,0.27614 -0.22386,0.5 -0.5,0.5c-0.27614,0 -0.5,-0.22386 -0.5,-0.5z" fill="#000000" stroke="none"/><path d="M239.87798,176.11974c-0.14367,-0.47891 0.33524,-0.62259 0.33524,-0.62259l0.38381,-0.08898c0.36235,-0.56223 0.51056,-1.09535 0.702,-1.73367c0,0 0.14367,-0.47891 0.62259,-0.33524c0.47891,0.14367 0.33524,0.62259 0.33524,0.62259c-0.26902,0.89648 -0.49283,1.5262 -1.08747,2.26633l-0.66882,0.22681c0,0 -0.47891,0.14367 -0.62259,-0.33524z" fill="#000000" stroke="none"/></g></g></svg>