<svg version="1.1" xmlns="http://www.w3.org/2000/svg" xmlns:xlink="http://www.w3.org/1999/xlink" width="15.11631" height="13.28185" viewBox="0,0,15.11631,13.28185"><g transform="translate(-233.63028,-167.01815)"><g data-paper-data="{&quot;isPaintingLayer&quot;:true}" fill-rule="nonzero" stroke-width="0.5" stroke-linecap="butt" stroke-linejoin="miter" stroke-miterlimit="10" stroke-dasharray="" stroke-dashoffset="0" style="mix-blend-mode: normal"><path d="M245.36196,178.78136c-0.17897,0.55486 -0.87586,0.96864 -1.70825,0.96864c-0.56728,0 -1.07161,-0.19217 -1.39198,-0.49021c-0.31944,0.24032 -0.77134,0.39021 -1.27233,0.39021c-0.46583,0 -0.88922,-0.12959 -1.20315,-0.34097c-0.27334,0.43665 -0.88753,0.74097 -1.60139,0.74097c-0.96806,0 -2.87465,-2.02444 -3.85624,-4.95c-1.08517,-3.23426 -0.46622,-5.0507 4.84444,-6.48585c0,0 1.12677,-0.26785 1.83445,0.29887c0.05133,-0.01308 0.08159,-0.01897 0.08159,-0.01897l2.27023,-0.32951c3.77769,0.50097 5.22102,2.25706 5.13354,4.21496c0.28873,0.10959 -1.70275,5.74983 -3.13091,6.00186z" fill="#7ac400" stroke="#000000"/><path d="M242.31742,167.51817c0,0.25 -0.25,0.25 -0.25,0.25l-0.00789,-0.05c-0.35644,0.26258 -0.47241,0.53246 -0.55929,0.91842c0.07026,0 0.14613,0 0.14613,0c0.08417,0 0.15862,0.04159 0.20393,0.10535c0.00219,-0.00006 0.00439,-0.00009 0.0066,-0.00009c0.13807,0 0.25,0.11193 0.25,0.25c0,0.02947 -0.0051,0.05774 -0.01446,0.08399c0.32407,0.1536 -2.04268,-0.32955 -1.54946,-0.33715c0.07102,-0.10212 0.20866,-0.10212 0.20866,-0.10212h0.10526c0.04763,0 0.09211,-0.00283 0.13344,-0.0066c0.11701,-0.55904 0.29202,-0.94887 0.76919,-1.31182l0.30789,-0.05c0,0 0.25,0 0.25,0.25z" fill="#00d30c" stroke="#000000"/><path d="M236.23585,171.97606c0,-0.27614 0.22386,-0.5 0.5,-0.5c0.27614,0 0.5,0.22386 0.5,0.5c0,0.27614 -0.22386,0.5 -0.5,0.5c-0.27614,0 -0.5,-0.22386 -0.5,-0.5z" fill="#000000" stroke="none"/><path d="M245.78321,171.53922c0,-0.27614 0.22386,-0.5 0.5,-0.5c0.27614,0 0.5,0.22386 0.5,0.5c0,0.27614 -0.22386,0.5 -0.5,0.5c-0.27614,0 -0.5,-0.22386 -0.5,-0.5z" fill="#000000" stroke="none"/><path d="M239.56394,176.73277c0.20793,-0.45471 0.66265,-0.24678 0.66265,-0.24678l0.34716,0.18631c0.64321,-0.18353 1.10627,-0.48644 1.67122,-0.8399c0,0 0.42389,-0.26516 0.68906,0.15873c0.26516,0.42389 -0.15873,0.68906 -0.15873,0.68906c-0.79355,0.49631 -1.37716,0.82195 -2.3123,0.98596l-0.65228,-0.27072c0,0 -0.45471,-0.20793 -0.24678,-0.66265z" fill="#000000" stroke="none"/></g></g></svg>