<svg version="1.1" xmlns="http://www.w3.org/2000/svg" xmlns:xlink="http://www.w3.org/1999/xlink" width="12.64243" height="13.43566" viewBox="0,0,12.64243,13.43566"><g transform="translate(-233.685,-173.23039)"><g data-paper-data="{&quot;isPaintingLayer&quot;:true}" fill-rule="nonzero" stroke-width="0.5" stroke-linecap="butt" stroke-linejoin="miter" stroke-miterlimit="10" stroke-dasharray="" stroke-dashoffset="0" style="mix-blend-mode: normal"><path d="M239.92135,173.58394l1.25,1.25c0,0 0.67882,5.43721 0.44967,7.22929c1.32773,-0.64818 2.05033,-3.35429 2.05033,-3.35429l1.75,-0.25l0.625,1.75l-3.52036,4.61516c0,0 -1.715,1.59102 -3.06175,1.59195c-1.34675,0.00093 -2.61707,-1.58803 -2.61707,-1.58803l-2.89352,-5.26202l0.48564,-1.69975l1.69975,0.48564c0,0 1.52185,2.69972 2.05864,3.28808c0.00924,-1.13696 0.47367,-6.80603 0.47367,-6.80603z" fill="#ac51d4" stroke="#000000"/><path d="M234.79635,179.33394c0,-0.27614 0.22386,-0.5 0.5,-0.5c0.27614,0 0.5,0.22386 0.5,0.5c0,0.27614 -0.22386,0.5 -0.5,0.5c-0.27614,0 -0.5,-0.22386 -0.5,-0.5z" fill="#000000" stroke="none"/><path d="M244.17135,179.83394c0,-0.27614 0.22386,-0.5 0.5,-0.5c0.27614,0 0.5,0.22386 0.5,0.5c0,0.27614 -0.22386,0.5 -0.5,0.5c-0.27614,0 -0.5,-0.22386 -0.5,-0.5z" fill="#000000" stroke="none"/><path d="M239.23301,183.55044c0.40064,0.39787 1.0316,0.77675 1.1014,0.34216c0.13521,-0.84187 -0.5315,-0.6158 -1.1014,-0.34216zM238.62186,182.73829c1.14623,-0.52818 3.63895,-0.42351 2.63643,1.53698c-0.86999,1.70133 -2.97117,0.3083 -3.32201,-0.94507c0,0 -0.12127,-0.48507 0.3638,-0.60634c0.13291,-0.03323 0.2385,-0.02093 0.32177,0.01443z" fill="#000000" stroke="none"/></g></g></svg>